<svg width="25" height="25" viewBox="0 0 25 25" fill="none" xmlns="http://www.w3.org/2000/svg">
<g clip-path="url(#clip0_227_310)">
<path d="M19.6496 0.5H5.34739C2.66873 0.5 0.5 2.669 0.5 5.348V19.655C0.5 22.331 2.66873 24.5 5.34739 24.5H19.6526C22.3283 24.5 24.5 22.331 24.5 19.652V5.348C24.497 2.669 22.3283 0.5 19.6496 0.5Z" fill="url(#paint0_linear_227_310)"/>
<path d="M12.3967 6.01403L12.8826 5.17403C13.1826 4.64903 13.8515 4.47203 14.3764 4.77203C14.9013 5.07203 15.0783 5.74103 14.7784 6.26603L10.096 14.372H13.4825C14.5804 14.372 15.1953 15.662 14.7184 16.556H4.78962C4.18369 16.556 3.69775 16.07 3.69775 15.464C3.69775 14.858 4.18369 14.372 4.78962 14.372H7.57327L11.1368 8.19503L10.024 6.26303C9.724 5.73803 9.90098 5.07503 10.4259 4.76903C10.9508 4.46903 11.6138 4.64603 11.9197 5.17103L12.3967 6.01403ZM8.18519 17.681L7.13532 19.502C6.83536 20.027 6.16644 20.204 5.64151 19.904C5.11658 19.604 4.9396 18.935 5.23956 18.41L6.01946 17.06C6.90135 16.787 7.61826 16.997 8.18519 17.681ZM17.2261 14.378H20.0667C20.6726 14.378 21.1586 14.864 21.1586 15.47C21.1586 16.076 20.6726 16.562 20.0667 16.562H18.4889L19.5538 18.41C19.8537 18.935 19.6768 19.598 19.1518 19.904C18.6269 20.204 17.964 20.027 17.658 19.502C15.8642 16.391 14.5174 14.063 13.6235 12.512C12.7086 10.934 13.3625 9.35003 14.0075 8.81303C14.7244 10.043 15.7952 11.9 17.2261 14.378Z" fill="white"/>
</g>
<defs>
<linearGradient id="paint0_linear_227_310" x1="12.4985" y1="0.5" x2="12.4985" y2="24.5" gradientUnits="userSpaceOnUse">
<stop stop-color="#0ED4FC"/>
<stop offset="1" stop-color="#0C57EF"/>
</linearGradient>
<clipPath id="clip0_227_310">
<rect width="24" height="24" fill="white" transform="translate(0.5 0.5)"/>
</clipPath>
</defs>
</svg>
