<svg width="32" height="32" viewBox="0 0 32 32" fill="none" xmlns="http://www.w3.org/2000/svg">
<circle cx="16" cy="16" r="16" fill="#F4D150"/>
<mask id="mask0_227_315" style="mask-type:alpha" maskUnits="userSpaceOnUse" x="0" y="0" width="32" height="32">
<circle cx="16" cy="16" r="16" fill="#FFEDEF"/>
</mask>
<g mask="url(#mask0_227_315)">
<path d="M20.3259 31.4001C19.1133 29.7159 18.1645 25.6176 18.0522 23.9896L12.2838 21.5053L9.88379 31.4001H20.3259Z" fill="#FC909F" stroke="black" stroke-width="0.336842"/>
<mask id="mask1_227_315" style="mask-type:alpha" maskUnits="userSpaceOnUse" x="9" y="21" width="12" height="11">
<path d="M20.3259 31.4001C19.1133 29.7159 18.1645 25.6176 18.0522 23.9896L12.2838 21.5053L9.88379 31.4001H20.3259Z" fill="#FFEDEF"/>
</mask>
<g mask="url(#mask1_227_315)">
<ellipse cx="18.0207" cy="21.3054" rx="4.96842" ry="4.54737" fill="black"/>
</g>
<g clip-path="url(#clip0_227_315)">
<path d="M20.5471 30.5264C19.3345 28.8422 18.3857 25.5861 18.2734 23.958L12.505 21.4738L10.105 30.5264H20.5471Z" fill="#F9C9B6" stroke="black" stroke-width="0.336842"/>
<mask id="mask2_227_315" style="mask-type:alpha" maskUnits="userSpaceOnUse" x="10" y="21" width="11" height="11">
<path d="M20.5471 31.3685C19.3345 29.6843 18.3857 25.5861 18.2734 23.958L12.505 21.4738L10.105 31.3685H20.5471Z" fill="#F9C9B6"/>
</mask>
<g mask="url(#mask2_227_315)">
<g style="mix-blend-mode:multiply">
<ellipse cx="18.0207" cy="21.3053" rx="4.96842" ry="4.54737" fill="black"/>
</g>
</g>
<mask id="path-9-inside-1_227_315" fill="white">
<path d="M13.7753 5.65134C17.276 4.81259 20.7924 6.95855 21.6532 10.4482H21.6552L23.0858 16.4209H23.0829C23.8481 19.8961 21.6928 23.3576 18.2177 24.1904C14.7424 25.023 11.2511 22.9144 10.3583 19.4697L10.3563 19.4707L10.3319 19.3691C10.3304 19.3629 10.3285 19.3567 10.327 19.3506C10.3256 19.3444 10.3246 19.3382 10.3231 19.332L8.94033 13.5605C8.93876 13.5541 8.93699 13.5475 8.93544 13.541C8.93381 13.5342 8.93217 13.5273 8.93056 13.5205L8.92568 13.498V13.497C8.11194 9.99644 10.2748 6.49012 13.7753 5.65134Z"/>
</mask>
<path d="M13.7753 5.65134C17.276 4.81259 20.7924 6.95855 21.6532 10.4482H21.6552L23.0858 16.4209H23.0829C23.8481 19.8961 21.6928 23.3576 18.2177 24.1904C14.7424 25.023 11.2511 22.9144 10.3583 19.4697L10.3563 19.4707L10.3319 19.3691C10.3304 19.3629 10.3285 19.3567 10.327 19.3506C10.3256 19.3444 10.3246 19.3382 10.3231 19.332L8.94033 13.5605C8.93876 13.5541 8.93699 13.5475 8.93544 13.541C8.93381 13.5342 8.93217 13.5273 8.93056 13.5205L8.92568 13.498V13.497C8.11194 9.99644 10.2748 6.49012 13.7753 5.65134Z" fill="#F9C9B6"/>
<path d="M13.7753 5.65134L13.6968 5.32377L13.6968 5.32377L13.7753 5.65134ZM21.6532 10.4482L21.3262 10.5289L21.3894 10.7851H21.6532V10.4482ZM21.6552 10.4482L21.9827 10.3698L21.9209 10.1114H21.6552V10.4482ZM23.0858 16.4209V16.7577H23.5129L23.4134 16.3424L23.0858 16.4209ZM23.0829 16.4209V16.084H22.6638L22.7539 16.4933L23.0829 16.4209ZM18.2177 24.1904L18.2962 24.518L18.2962 24.518L18.2177 24.1904ZM10.3583 19.4697L10.6844 19.3852L10.5799 18.9823L10.2077 19.1684L10.3583 19.4697ZM10.3563 19.4707L10.0288 19.5494L10.1279 19.9615L10.507 19.772L10.3563 19.4707ZM10.3319 19.3691L10.6594 19.2904L10.6593 19.2897L10.3319 19.3691ZM10.327 19.3506L9.99947 19.429L9.99947 19.429L10.327 19.3506ZM10.3231 19.332L10.6509 19.2545L10.6507 19.2535L10.3231 19.332ZM8.94033 13.5605L9.2679 13.482L9.26766 13.4811L8.94033 13.5605ZM8.93544 13.541L8.60787 13.6195L8.60787 13.6195L8.93544 13.541ZM8.93056 13.5205L8.60135 13.592L8.60274 13.5979L8.93056 13.5205ZM8.92568 13.498H8.58884V13.5342L8.59652 13.5696L8.92568 13.498ZM8.92568 13.497H9.26252V13.4584L9.25377 13.4208L8.92568 13.497ZM13.7753 5.65134L13.8538 5.97891C17.1743 5.18335 20.5097 7.21877 21.3262 10.5289L21.6532 10.4482L21.9803 10.3675C21.0752 6.69833 17.3778 4.44183 13.6968 5.32377L13.7753 5.65134ZM21.6532 10.4482V10.7851H21.6552V10.4482V10.1114H21.6532V10.4482ZM21.6552 10.4482L21.3276 10.5267L22.7583 16.4993L23.0858 16.4209L23.4134 16.3424L21.9827 10.3698L21.6552 10.4482ZM23.0858 16.4209V16.084H23.0829V16.4209V16.7577H23.0858V16.4209ZM23.0829 16.4209L22.7539 16.4933C23.4798 19.7897 21.4353 23.0729 18.1392 23.8628L18.2177 24.1904L18.2962 24.518C21.9503 23.6423 24.2165 20.0025 23.4119 16.3484L23.0829 16.4209ZM18.2177 24.1904L18.1392 23.8628C14.8429 24.6526 11.5312 22.6526 10.6844 19.3852L10.3583 19.4697L10.0322 19.5542C10.971 23.1763 14.642 25.3935 18.2962 24.518L18.2177 24.1904ZM10.3583 19.4697L10.2077 19.1684L10.2057 19.1694L10.3563 19.4707L10.507 19.772L10.5089 19.771L10.3583 19.4697ZM10.3563 19.4707L10.6839 19.3919L10.6594 19.2904L10.3319 19.3691L10.0044 19.4478L10.0288 19.5494L10.3563 19.4707ZM10.3319 19.3691L10.6593 19.2897C10.6581 19.2849 10.657 19.2807 10.6562 19.2777C10.6554 19.2748 10.6547 19.272 10.6543 19.2708C10.6539 19.2691 10.6538 19.2689 10.6538 19.2689C10.6538 19.269 10.6542 19.2702 10.6546 19.2721L10.327 19.3506L9.99947 19.429C10.0007 19.434 10.0018 19.4383 10.0026 19.4415C10.0035 19.4446 10.0042 19.4475 10.0046 19.4489C10.0049 19.4498 10.005 19.4503 10.0051 19.4507C10.0052 19.4511 10.0053 19.4513 10.0053 19.4513C10.0053 19.4513 10.0052 19.451 10.0051 19.4506C10.005 19.4501 10.0048 19.4494 10.0046 19.4485L10.3319 19.3691ZM10.327 19.3506L10.6546 19.2721C10.6553 19.2748 10.6557 19.2768 10.6558 19.2774C10.6559 19.2778 10.6559 19.2779 10.6556 19.2762C10.6553 19.275 10.6547 19.2719 10.654 19.2686C10.6533 19.265 10.6523 19.2601 10.6509 19.2545L10.3231 19.332L9.99534 19.4096C9.99473 19.407 9.99436 19.4052 9.99426 19.4047C9.99421 19.4045 9.99421 19.4044 9.99459 19.4064C9.99486 19.4077 9.99549 19.4109 9.99622 19.4145C9.99699 19.4182 9.99808 19.4232 9.99947 19.429L10.327 19.3506ZM10.3231 19.332L10.6507 19.2535L9.2679 13.482L8.94033 13.5605L8.61275 13.639L9.99557 19.4105L10.3231 19.332ZM8.94033 13.5605L9.26766 13.4811C9.25936 13.4469 9.26861 13.4859 9.26301 13.4625L8.93544 13.541L8.60787 13.6195C8.60927 13.6253 8.61064 13.6307 8.61143 13.6338C8.61241 13.6376 8.61273 13.6389 8.61299 13.64L8.94033 13.5605ZM8.93544 13.541L9.26302 13.4625C9.26143 13.4559 9.25989 13.4494 9.25838 13.443L8.93056 13.5205L8.60274 13.5979C8.60446 13.6052 8.60618 13.6124 8.60787 13.6195L8.93544 13.541ZM8.93056 13.5205L9.25971 13.4489L9.25483 13.4265L8.92568 13.498L8.59652 13.5696L8.60141 13.592L8.93056 13.5205ZM8.92568 13.498H9.26252V13.497H8.92568H8.58884V13.498H8.92568ZM8.92568 13.497L9.25377 13.4208C8.48192 10.1003 10.5335 6.77451 13.8538 5.97891L13.7753 5.65134L13.6968 5.32377C10.0161 6.20573 7.74197 9.89253 8.59758 13.5733L8.92568 13.497Z" fill="black" mask="url(#path-9-inside-1_227_315)"/>
</g>
<path d="M15.1157 18.5685C15.3262 20.0001 17.7262 20.6737 19.9157 19.0316" stroke="black" stroke-width="0.336842"/>
<path d="M18.4419 11.1339C18.9191 10.9094 20.0419 10.7044 20.7156 11.6813" stroke="black" stroke-width="0.336842" stroke-linecap="round"/>
<path d="M12.0905 13.265C12.2649 12.7673 12.9058 11.8229 14.0747 12.0272" stroke="black" stroke-width="0.336842" stroke-linecap="round"/>
<path d="M15.0503 4.06006L15.3921 4.0835L15.4058 4.08447C17.6512 4.15061 19.3969 5.04375 20.6323 6.13428C21.8153 7.17867 22.5206 8.39688 22.7515 9.22705C22.4094 9.42191 21.8247 9.59145 21.0786 9.729C20.2639 9.87918 19.2856 9.98871 18.2876 10.0669C16.2916 10.2233 14.2303 10.2528 13.2671 10.2319L12.7554 10.2202L13.1597 10.5337C13.37 10.6962 13.6507 10.8086 13.9468 10.8882C14.2448 10.9682 14.5709 11.0175 14.8833 11.0454C15.2045 11.0741 15.5181 11.0803 15.7778 11.0737C14.8864 11.7607 13.7528 12.2905 12.6343 12.6821C11.3421 13.1345 10.0857 13.4001 9.28076 13.5181L9.1001 13.5444L9.14111 13.7222C9.54806 15.4763 10.4472 19.1249 10.6147 19.8286C10.7061 20.212 10.9937 20.7584 11.3218 21.2622C11.624 21.7263 11.9772 22.178 12.2749 22.4565L11.6147 25.1372H9.12451C9.82712 24.0664 9.97671 22.8294 9.8335 21.5171C9.67851 20.097 9.17939 18.569 8.65381 17.0396C8.12577 15.503 7.57036 13.964 7.28369 12.4956C7.0152 11.1202 6.98683 9.82723 7.42725 8.67627L7.52197 8.44775C8.39262 6.49291 9.93618 5.35751 11.48 4.73193C12.8342 4.1832 14.1798 4.03044 15.0503 4.06006Z" fill="white" stroke="black" stroke-width="0.336842"/>
<ellipse cx="14.1151" cy="14.1202" rx="0.757895" ry="0.842105" transform="rotate(-6.77646 14.1151 14.1202)" fill="black"/>
<ellipse cx="19.507" cy="13.2778" rx="0.757895" ry="0.842105" transform="rotate(-6.27568 19.507 13.2778)" fill="black"/>
<path d="M16.8052 14.6006C16.9693 15.7681 17.682 16.6034 17.682 16.6034C17.682 16.6034 17.4604 17.1447 16.6031 17.0952" stroke="black" stroke-width="0.336842"/>
<path d="M11.0308 18.2349L10.9858 18.2827C10.6778 18.6146 10.2734 18.8628 9.81201 18.8628C9.53281 18.8628 9.27079 18.8219 9.06592 18.7056C8.8778 18.5987 8.74735 18.4334 8.6958 18.2095L8.67822 18.1099C8.66678 18.0138 8.6758 17.9229 8.70068 17.8384C8.44332 17.6125 8.27239 17.29 8.20166 16.8618L8.17529 16.646C8.12941 16.0954 8.30226 15.6532 8.62256 15.3511C8.93929 15.0524 9.38397 14.9058 9.85889 14.9058C10.2539 14.9058 10.6363 15.0107 10.9507 15.2036L11.0308 15.2534V18.2349Z" stroke="black" stroke-width="0.336842"/>
<path d="M9.85877 15.0737C10.7424 15.0737 11.5433 15.645 11.5433 16.5054C11.5433 16.5659 11.5375 16.6254 11.5306 16.6841C11.4775 17.5228 10.7426 18.6948 9.81189 18.6948C9.27853 18.6948 8.89927 18.5346 8.84607 18.0903C8.83222 17.9741 8.85454 17.8722 8.90467 17.7856C8.59238 17.5629 8.39002 17.194 8.34314 16.6313C8.25909 15.621 8.97522 15.0738 9.85877 15.0737Z" fill="#F9C9B6"/>
<path d="M10.2312 15.7895C9.89432 15.6351 9.15326 15.5537 8.88379 16.4632" stroke="black" stroke-width="0.336842"/>
<path d="M9.34717 15.8316C9.52962 15.986 9.87769 16.4632 9.81033 17.1369" stroke="black" stroke-width="0.336842"/>
<path d="M15.4946 27.0261C16.2908 27.0261 16.9106 27.1481 17.4985 27.3083C17.9323 27.4266 18.3707 27.5733 18.8442 27.7039L19.3306 27.8269L19.3423 27.8298L19.355 27.8308C23.2382 28.1512 25.5651 29.8775 27.2554 32.2527H4.24561C5.52956 29.9421 7.31797 28.4153 10.1343 27.6375L10.7319 27.4871C11.9118 27.2181 13.2622 27.0675 14.8159 27.0339L15.4946 27.0261Z" fill="#77311D" stroke="black" stroke-width="0.336842"/>
<path d="M9.76248 27.6701L10.5333 26.0198C10.5517 25.9804 10.5974 25.9616 10.6384 25.9762C13.8323 27.1067 16.7377 27.0271 19.4303 26.2776C19.4642 26.2681 19.5004 26.2806 19.5212 26.309L20.6944 27.9134C20.7267 27.9575 20.7102 28.0197 20.6594 28.0397C17.8293 29.151 12.5189 28.9621 9.80329 27.7815C9.76021 27.7628 9.7426 27.7126 9.76248 27.6701Z" fill="white" stroke="black" stroke-width="0.336842"/>
</g>
<defs>
<clipPath id="clip0_227_315">
<rect width="16.8421" height="26.9474" fill="white" transform="translate(7.57861 3.62109)"/>
</clipPath>
</defs>
</svg>
