<svg width="32" height="32" viewBox="0 0 32 32" fill="none" xmlns="http://www.w3.org/2000/svg">
<circle cx="16" cy="16" r="16" fill="#E0DDFF"/>
<mask id="mask0_227_341" style="mask-type:alpha" maskUnits="userSpaceOnUse" x="0" y="0" width="32" height="32">
<circle cx="16" cy="16" r="16" fill="#FFEDEF"/>
</mask>
<g mask="url(#mask0_227_341)">
<g clip-path="url(#clip0_227_341)">
<path d="M20.5471 30.5264C19.3345 28.8422 18.3857 25.5861 18.2734 23.958L12.505 21.4738L10.105 30.5264H20.5471Z" fill="#F9C9B6" stroke="black" stroke-width="0.336842"/>
<mask id="mask1_227_341" style="mask-type:alpha" maskUnits="userSpaceOnUse" x="10" y="21" width="11" height="11">
<path d="M20.5471 31.3685C19.3345 29.6843 18.3857 25.5861 18.2734 23.958L12.505 21.4738L10.105 31.3685H20.5471Z" fill="#F9C9B6"/>
</mask>
<g mask="url(#mask1_227_341)">
<g style="mix-blend-mode:multiply">
<ellipse cx="18.0207" cy="21.3053" rx="4.96842" ry="4.54737" fill="black"/>
</g>
</g>
<mask id="path-6-inside-1_227_341" fill="white">
<path d="M13.7753 5.65134C17.276 4.81259 20.7924 6.95855 21.6532 10.4482H21.6552L23.0858 16.4209H23.0829C23.8481 19.8961 21.6928 23.3576 18.2177 24.1904C14.7424 25.023 11.2511 22.9144 10.3583 19.4697L10.3563 19.4707L10.3319 19.3691C10.3304 19.3629 10.3285 19.3567 10.327 19.3506C10.3256 19.3444 10.3246 19.3382 10.3231 19.332L8.94033 13.5605C8.93876 13.5541 8.93699 13.5475 8.93544 13.541C8.93381 13.5342 8.93217 13.5273 8.93056 13.5205L8.92568 13.498V13.497C8.11194 9.99644 10.2748 6.49012 13.7753 5.65134Z"/>
</mask>
<path d="M13.7753 5.65134C17.276 4.81259 20.7924 6.95855 21.6532 10.4482H21.6552L23.0858 16.4209H23.0829C23.8481 19.8961 21.6928 23.3576 18.2177 24.1904C14.7424 25.023 11.2511 22.9144 10.3583 19.4697L10.3563 19.4707L10.3319 19.3691C10.3304 19.3629 10.3285 19.3567 10.327 19.3506C10.3256 19.3444 10.3246 19.3382 10.3231 19.332L8.94033 13.5605C8.93876 13.5541 8.93699 13.5475 8.93544 13.541C8.93381 13.5342 8.93217 13.5273 8.93056 13.5205L8.92568 13.498V13.497C8.11194 9.99644 10.2748 6.49012 13.7753 5.65134Z" fill="#F9C9B6"/>
<path d="M13.7753 5.65134L13.6968 5.32377L13.6968 5.32377L13.7753 5.65134ZM21.6532 10.4482L21.3262 10.5289L21.3894 10.7851H21.6532V10.4482ZM21.6552 10.4482L21.9827 10.3698L21.9209 10.1114H21.6552V10.4482ZM23.0858 16.4209V16.7577H23.5129L23.4134 16.3424L23.0858 16.4209ZM23.0829 16.4209V16.084H22.6638L22.7539 16.4933L23.0829 16.4209ZM18.2177 24.1904L18.2962 24.518L18.2962 24.518L18.2177 24.1904ZM10.3583 19.4697L10.6844 19.3852L10.5799 18.9823L10.2077 19.1684L10.3583 19.4697ZM10.3563 19.4707L10.0288 19.5494L10.1279 19.9615L10.507 19.772L10.3563 19.4707ZM10.3319 19.3691L10.6594 19.2904L10.6593 19.2897L10.3319 19.3691ZM10.327 19.3506L9.99947 19.429L9.99947 19.429L10.327 19.3506ZM10.3231 19.332L10.6509 19.2545L10.6507 19.2535L10.3231 19.332ZM8.94033 13.5605L9.2679 13.482L9.26766 13.4811L8.94033 13.5605ZM8.93544 13.541L8.60787 13.6195L8.60787 13.6195L8.93544 13.541ZM8.93056 13.5205L8.60135 13.592L8.60274 13.5979L8.93056 13.5205ZM8.92568 13.498H8.58884V13.5342L8.59652 13.5696L8.92568 13.498ZM8.92568 13.497H9.26252V13.4584L9.25377 13.4208L8.92568 13.497ZM13.7753 5.65134L13.8538 5.97891C17.1743 5.18335 20.5097 7.21877 21.3262 10.5289L21.6532 10.4482L21.9803 10.3675C21.0752 6.69833 17.3778 4.44183 13.6968 5.32377L13.7753 5.65134ZM21.6532 10.4482V10.7851H21.6552V10.4482V10.1114H21.6532V10.4482ZM21.6552 10.4482L21.3276 10.5267L22.7583 16.4993L23.0858 16.4209L23.4134 16.3424L21.9827 10.3698L21.6552 10.4482ZM23.0858 16.4209V16.084H23.0829V16.4209V16.7577H23.0858V16.4209ZM23.0829 16.4209L22.7539 16.4933C23.4798 19.7897 21.4353 23.0729 18.1392 23.8628L18.2177 24.1904L18.2962 24.518C21.9503 23.6423 24.2165 20.0025 23.4119 16.3484L23.0829 16.4209ZM18.2177 24.1904L18.1392 23.8628C14.8429 24.6526 11.5312 22.6526 10.6844 19.3852L10.3583 19.4697L10.0322 19.5542C10.971 23.1763 14.642 25.3935 18.2962 24.518L18.2177 24.1904ZM10.3583 19.4697L10.2077 19.1684L10.2057 19.1694L10.3563 19.4707L10.507 19.772L10.5089 19.771L10.3583 19.4697ZM10.3563 19.4707L10.6839 19.3919L10.6594 19.2904L10.3319 19.3691L10.0044 19.4478L10.0288 19.5494L10.3563 19.4707ZM10.3319 19.3691L10.6593 19.2897C10.6581 19.2849 10.657 19.2807 10.6562 19.2777C10.6554 19.2748 10.6547 19.272 10.6543 19.2708C10.6539 19.2691 10.6538 19.2689 10.6538 19.2689C10.6538 19.269 10.6542 19.2702 10.6546 19.2721L10.327 19.3506L9.99947 19.429C10.0007 19.434 10.0018 19.4383 10.0026 19.4415C10.0035 19.4446 10.0042 19.4475 10.0046 19.4489C10.0049 19.4498 10.005 19.4503 10.0051 19.4507C10.0052 19.4511 10.0053 19.4513 10.0053 19.4513C10.0053 19.4513 10.0052 19.451 10.0051 19.4506C10.005 19.4501 10.0048 19.4494 10.0046 19.4485L10.3319 19.3691ZM10.327 19.3506L10.6546 19.2721C10.6553 19.2748 10.6557 19.2768 10.6558 19.2774C10.6559 19.2778 10.6559 19.2779 10.6556 19.2762C10.6553 19.275 10.6547 19.2719 10.654 19.2686C10.6533 19.265 10.6523 19.2601 10.6509 19.2545L10.3231 19.332L9.99534 19.4096C9.99473 19.407 9.99436 19.4052 9.99426 19.4047C9.99421 19.4045 9.99421 19.4044 9.99459 19.4064C9.99486 19.4077 9.99549 19.4109 9.99622 19.4145C9.99699 19.4182 9.99808 19.4232 9.99947 19.429L10.327 19.3506ZM10.3231 19.332L10.6507 19.2535L9.2679 13.482L8.94033 13.5605L8.61275 13.639L9.99557 19.4105L10.3231 19.332ZM8.94033 13.5605L9.26766 13.4811C9.25936 13.4469 9.26861 13.4859 9.26301 13.4625L8.93544 13.541L8.60787 13.6195C8.60927 13.6253 8.61064 13.6307 8.61143 13.6338C8.61241 13.6376 8.61273 13.6389 8.61299 13.64L8.94033 13.5605ZM8.93544 13.541L9.26302 13.4625C9.26143 13.4559 9.25989 13.4494 9.25838 13.443L8.93056 13.5205L8.60274 13.5979C8.60446 13.6052 8.60618 13.6124 8.60787 13.6195L8.93544 13.541ZM8.93056 13.5205L9.25971 13.4489L9.25483 13.4265L8.92568 13.498L8.59652 13.5696L8.60141 13.592L8.93056 13.5205ZM8.92568 13.498H9.26252V13.497H8.92568H8.58884V13.498H8.92568ZM8.92568 13.497L9.25377 13.4208C8.48192 10.1003 10.5335 6.77451 13.8538 5.97891L13.7753 5.65134L13.6968 5.32377C10.0161 6.20573 7.74197 9.89253 8.59758 13.5733L8.92568 13.497Z" fill="black" mask="url(#path-6-inside-1_227_341)"/>
</g>
<path d="M17.8068 18.202C18.7194 18.0368 19.5742 18.794 19.7602 19.8214C19.9461 20.8489 19.4108 21.8576 18.4983 22.0227C17.5858 22.1876 16.7317 21.4304 16.5458 20.4031C16.3599 19.3759 16.8945 18.3674 17.8068 18.202Z" fill="black" stroke="black" stroke-width="0.302413"/>
<mask id="mask2_227_341" style="mask-type:alpha" maskUnits="userSpaceOnUse" x="16" y="18" width="4" height="4">
<ellipse cx="18.153" cy="20.1123" rx="1.4819" ry="1.79007" transform="rotate(-10.2582 18.153 20.1123)" fill="#171921"/>
</mask>
<g mask="url(#mask2_227_341)">
<ellipse cx="18.4273" cy="21.6291" rx="1.70144" ry="1.54145" transform="rotate(-10.2582 18.4273 21.6291)" fill="#FC909F"/>
</g>
<circle cx="14.0412" cy="13.3886" r="1.01053" transform="rotate(-6.27568 14.0412 13.3886)" fill="#D2EFF3"/>
<ellipse cx="14.1499" cy="14.1603" rx="0.757895" ry="1.13684" transform="rotate(-6.77646 14.1499 14.1603)" fill="black"/>
<circle cx="19.4118" cy="12.662" r="1.01053" transform="rotate(-6.27568 19.4118 12.662)" fill="#D2EFF3"/>
<ellipse cx="19.5392" cy="13.3181" rx="0.757895" ry="1.13684" transform="rotate(-6.27568 19.5392 13.3181)" fill="black"/>
<path d="M18.4419 11.1339C18.9191 10.9094 20.0419 10.7044 20.7156 11.6813" stroke="black" stroke-width="0.336842" stroke-linecap="round"/>
<path d="M12.0905 13.265C12.2649 12.7673 12.9058 11.8229 14.0747 12.0272" stroke="black" stroke-width="0.336842" stroke-linecap="round"/>
<path d="M12.3005 12.7544L11.7827 12.2974" stroke="black" stroke-width="0.336842" stroke-linecap="round"/>
<path d="M20.4598 11.2133L20.9775 10.7563" stroke="black" stroke-width="0.336842" stroke-linecap="round"/>
<path d="M12.8437 12.2792L12.5029 11.6785" stroke="black" stroke-width="0.336842" stroke-linecap="round"/>
<path d="M19.8321 10.9064L20.1729 10.3058" stroke="black" stroke-width="0.336842" stroke-linecap="round"/>
<path d="M13.5237 11.9748L13.3384 11.3096" stroke="black" stroke-width="0.336842" stroke-linecap="round"/>
<path d="M19.0681 10.8548L19.2534 10.1895" stroke="black" stroke-width="0.336842" stroke-linecap="round"/>
<path d="M15.8301 3.10852C17.0919 3.10852 18.1161 3.35492 18.9414 3.95422C19.7669 4.55375 20.414 5.52152 20.8936 7.0011L20.9268 7.10364L21.0342 7.11145C22.0764 7.19044 22.8093 7.62038 23.3496 8.30872C23.8274 8.91742 24.16 9.73435 24.4102 10.7081L24.5127 11.1349C24.6845 11.9012 24.5165 12.6577 24.3154 13.5284C24.1411 14.2831 23.9455 15.1128 23.9648 16.0626L23.9873 16.4767C24.074 17.4741 24.4719 18.4534 24.8027 19.2062C24.9706 19.5881 25.1175 19.9044 25.207 20.1476C25.2518 20.2693 25.2779 20.3615 25.2861 20.4269C25.2902 20.4589 25.2873 20.4759 25.2861 20.4835C25.2487 20.518 25.1806 20.5572 25.0703 20.5909C24.955 20.6262 24.8095 20.6528 24.6426 20.6691C24.3091 20.7016 23.9064 20.6936 23.5195 20.6564C23.1321 20.6191 22.7696 20.5534 22.5156 20.4728C22.3868 20.4318 22.2973 20.3903 22.2471 20.3546C22.2397 20.3494 22.2349 20.3437 22.2305 20.34C22.4115 19.7157 23.0498 18.3991 22.8418 16.5568L22.7881 16.1749C22.6121 15.1513 22.1421 13.3438 21.7188 11.799C21.5067 11.025 21.3054 10.3139 21.1572 9.797C21.0833 9.539 21.0228 9.32915 20.9805 9.18372C20.9594 9.11118 20.9429 9.05419 20.9316 9.01575C20.926 8.99652 20.9209 8.98169 20.918 8.9718C20.9165 8.96686 20.9158 8.96259 20.915 8.96008L20.9141 8.95715L20.8359 8.69055L20.6436 8.89075L20.6045 8.92981C20.5775 8.95648 20.5364 8.99657 20.4824 9.047C20.3744 9.14785 20.2134 9.29236 20.0029 9.46497C19.5815 9.81053 18.962 10.268 18.1738 10.7159C16.6733 11.5687 14.5651 12.3796 12.041 12.3165C12.85 11.5649 13.3172 10.9487 13.584 10.5011C13.7328 10.2515 13.82 10.0549 13.8701 9.91809C13.895 9.84996 13.9102 9.7965 13.9199 9.75891C13.9248 9.74009 13.9284 9.72479 13.9307 9.71399C13.9317 9.70877 13.933 9.70459 13.9336 9.70129C13.9339 9.69962 13.9344 9.69757 13.9346 9.69641V9.69446L13.9814 9.39954L13.709 9.52258H13.708L13.7061 9.52356C13.7043 9.52435 13.7022 9.52606 13.6992 9.52747C13.6928 9.53047 13.6829 9.53443 13.6709 9.54016C13.6466 9.55178 13.611 9.56928 13.5664 9.59192C13.4771 9.63724 13.3497 9.70442 13.1973 9.79309C12.8928 9.97022 12.4856 10.2342 12.0742 10.5792C11.3071 11.2227 10.5033 12.1698 10.3633 13.3888L10.3447 13.6359C10.328 14.0678 10.2831 15.741 10.2686 16.9991L10.2656 18.0577C10.2793 18.9531 10.743 19.9145 11.3857 20.8009C11.945 21.5723 12.6515 22.3018 13.3516 22.9034C10.1727 23.0289 7.76448 22.614 6.13672 22.1573C5.28763 21.9191 4.64988 21.6703 4.22656 21.4816C4.05866 21.4067 3.92478 21.3406 3.82422 21.2892C4.59007 20.7263 5.22981 19.7624 5.65137 18.3302C6.08472 16.8578 6.29196 14.8808 6.16797 12.3087L6.13867 11.7863C5.97573 9.22317 7.22137 7.05742 9.10352 5.52649C10.87 4.08966 13.1876 3.22115 15.3916 3.11829L15.8301 3.10852Z" fill="#D2EFF3" stroke="black" stroke-width="0.321839"/>
<path d="M21.0526 7.49475C21.0947 7.8737 21.0273 8.63159 20.9263 9.13686" stroke="black" stroke-width="0.336842"/>
<path d="M16.8521 14.9342C16.8692 15.2578 16.9951 15.9516 17.3615 16.1382C17.8194 16.3715 17.4604 17.1447 16.6031 17.0952" stroke="black" stroke-width="0.336842"/>
<path d="M11.0308 18.2349L10.9858 18.2827C10.6778 18.6146 10.2734 18.8628 9.81201 18.8628C9.53281 18.8628 9.27079 18.8219 9.06592 18.7056C8.8778 18.5987 8.74735 18.4334 8.6958 18.2095L8.67822 18.1099C8.66678 18.0138 8.6758 17.9229 8.70068 17.8384C8.44332 17.6125 8.27239 17.29 8.20166 16.8618L8.17529 16.646C8.12941 16.0954 8.30226 15.6532 8.62256 15.3511C8.93929 15.0524 9.38397 14.9058 9.85889 14.9058C10.2539 14.9058 10.6363 15.0107 10.9507 15.2036L11.0308 15.2534V18.2349Z" stroke="black" stroke-width="0.336842"/>
<path d="M9.85877 15.0737C10.7424 15.0737 11.5433 15.645 11.5433 16.5054C11.5433 16.5659 11.5375 16.6254 11.5306 16.6841C11.4775 17.5228 10.7426 18.6948 9.81189 18.6948C9.27853 18.6948 8.89927 18.5346 8.84607 18.0903C8.83222 17.9741 8.85454 17.8722 8.90467 17.7856C8.59238 17.5629 8.39002 17.194 8.34314 16.6313C8.25909 15.621 8.97522 15.0738 9.85877 15.0737Z" fill="#F9C9B6"/>
<path d="M10.2312 15.7895C9.89432 15.6351 9.15326 15.5537 8.88379 16.4632" stroke="black" stroke-width="0.336842"/>
<path d="M9.34717 15.8316C9.52962 15.986 9.87769 16.4632 9.81033 17.1369" stroke="black" stroke-width="0.336842"/>
<circle cx="9.68401" cy="18.1895" r="0.336842" fill="white"/>
<circle cx="9.76829" cy="18.1053" r="0.0842105" fill="#FFEDEF"/>
<path d="M10.7319 27.4871C10.8668 27.4563 11.0505 27.466 11.2798 27.5193C11.5067 27.5721 11.7654 27.6652 12.0444 27.7878C12.6025 28.0331 13.2256 28.3909 13.811 28.7615C14.3954 29.1314 14.9386 29.5109 15.3354 29.7986C15.5337 29.9424 15.6952 30.0637 15.8071 30.1482C15.8629 30.1903 15.9066 30.2232 15.936 30.2458C15.9505 30.2569 15.9617 30.2654 15.9692 30.2712C15.9729 30.2741 15.9762 30.2766 15.978 30.2781C15.9789 30.2788 15.9795 30.2797 15.98 30.28H15.981L16.1255 30.3933L16.2261 30.239L16.2271 30.2371C16.2278 30.2359 16.2286 30.2342 16.23 30.2322C16.2331 30.2274 16.2383 30.2202 16.2446 30.2107C16.2573 30.1917 16.2756 30.1633 16.3003 30.1277C16.3498 30.0561 16.4231 29.9542 16.5151 29.8318C16.6998 29.5864 16.9613 29.2619 17.269 28.9451C17.5777 28.6273 17.9284 28.3217 18.2905 28.1091C18.6087 27.9224 18.9233 27.8139 19.2202 27.8201L19.3462 27.8298C22.9195 28.3117 25.5482 29.8953 27.2554 32.2527H4.24561C5.52956 29.9421 7.31798 28.4153 10.1343 27.6375L10.7319 27.4871Z" fill="#9287FF" stroke="black" stroke-width="0.336842"/>
<path d="M9.73571 27.7125L10.1708 26.0929C10.1884 26.0274 10.2733 26.0088 10.3191 26.059C11.5707 27.4286 13.1502 27.3749 13.6745 27.312C13.7456 27.3035 13.8013 27.3814 13.7679 27.4448L12.6599 29.5461C12.643 29.5783 12.6082 29.596 12.5726 29.5886C12.2401 29.5193 10.5833 29.1143 9.74548 27.7783C9.73321 27.7588 9.72972 27.7348 9.73571 27.7125Z" fill="#E0DDFF" stroke="black" stroke-width="0.336842"/>
<path d="M20.7323 27.7038L19.7571 26.0631C19.724 26.0074 19.6425 26.0083 19.6072 26.0627C19.1241 26.8068 18.2908 27.1495 17.9994 27.2508C17.947 27.269 17.923 27.3313 17.9513 27.379L19.0884 29.3003C19.1053 29.329 19.1374 29.3445 19.1694 29.3354C19.3492 29.2842 19.9661 29.0262 20.7312 27.7913C20.7477 27.7648 20.7483 27.7306 20.7323 27.7038Z" fill="#E0DDFF" stroke="black" stroke-width="0.336842"/>
<path d="M14.5261 29.179L13.7682 27.3685L13.1787 28.6316L14.5261 29.179Z" fill="black" stroke="black" stroke-width="0.336842" stroke-linejoin="round"/>
<path d="M17.179 29.0948L17.9369 27.2843L18.5264 28.5475L17.179 29.0948Z" fill="black" stroke="black" stroke-width="0.336842" stroke-linejoin="round"/>
<path d="M11.242 25.7685L10.2314 26.0211L11.0736 26.5685L11.242 25.7685Z" fill="black" stroke="black" stroke-width="0.336842" stroke-linejoin="round"/>
<path d="M18.7788 25.7685L19.7051 26.0211L19.1156 26.5685L18.7788 25.7685Z" fill="black" stroke="black" stroke-width="0.336842" stroke-linejoin="round"/>
</g>
<defs>
<clipPath id="clip0_227_341">
<rect width="16.8421" height="26.9474" fill="white" transform="translate(7.57861 3.62109)"/>
</clipPath>
</defs>
</svg>
