<svg width="32" height="32" viewBox="0 0 32 32" fill="none" xmlns="http://www.w3.org/2000/svg">
<circle cx="16" cy="16" r="16" fill="#F9C9B6"/>
<mask id="mask0_227_328" style="mask-type:alpha" maskUnits="userSpaceOnUse" x="0" y="0" width="32" height="32">
<circle cx="16" cy="16" r="16" fill="#FFEDEF"/>
</mask>
<g mask="url(#mask0_227_328)">
<path d="M20.3259 31.4C19.1133 29.7158 18.1645 25.6176 18.0522 23.9895L12.2838 21.5052L9.88379 31.4H20.3259Z" fill="#FC909F" stroke="black" stroke-width="0.336842"/>
<mask id="mask1_227_328" style="mask-type:alpha" maskUnits="userSpaceOnUse" x="9" y="21" width="12" height="11">
<path d="M20.3259 31.4C19.1133 29.7158 18.1645 25.6176 18.0522 23.9895L12.2838 21.5052L9.88379 31.4H20.3259Z" fill="#FFEDEF"/>
</mask>
<g mask="url(#mask1_227_328)">
<ellipse cx="18.0207" cy="21.3053" rx="4.96842" ry="4.54737" fill="black"/>
</g>
<g clip-path="url(#clip0_227_328)">
<path d="M20.5471 31.3685C19.3345 29.6843 18.3857 25.5861 18.2734 23.958L12.505 21.4738L10.105 31.3685H20.5471Z" fill="#77311D" stroke="black" stroke-width="0.336842"/>
<mask id="mask2_227_328" style="mask-type:alpha" maskUnits="userSpaceOnUse" x="10" y="21" width="11" height="11">
<path d="M20.5471 31.3685C19.3345 29.6843 18.3857 25.5861 18.2734 23.958L12.505 21.4738L10.105 31.3685H20.5471Z" fill="#AC6651"/>
</mask>
<g mask="url(#mask2_227_328)">
<ellipse cx="18.0207" cy="21.3053" rx="4.96842" ry="4.54737" fill="black"/>
</g>
<mask id="path-9-inside-1_227_328" fill="white">
<path d="M13.7753 5.65134C17.276 4.81259 20.7924 6.95855 21.6532 10.4482H21.6552L23.1903 16.8564L23.1649 16.8623C23.6633 20.1846 21.5455 23.3929 18.2177 24.1904C14.8895 24.9878 11.5474 23.0873 10.4862 19.8994L10.4608 19.9062L8.94033 13.5605C8.93876 13.5541 8.93699 13.5475 8.93544 13.541C8.93381 13.5342 8.93217 13.5273 8.93056 13.5205L8.92568 13.498V13.497C8.11194 9.99644 10.2748 6.49012 13.7753 5.65134Z"/>
</mask>
<path d="M13.7753 5.65134C17.276 4.81259 20.7924 6.95855 21.6532 10.4482H21.6552L23.1903 16.8564L23.1649 16.8623C23.6633 20.1846 21.5455 23.3929 18.2177 24.1904C14.8895 24.9878 11.5474 23.0873 10.4862 19.8994L10.4608 19.9062L8.94033 13.5605C8.93876 13.5541 8.93699 13.5475 8.93544 13.541C8.93381 13.5342 8.93217 13.5273 8.93056 13.5205L8.92568 13.498V13.497C8.11194 9.99644 10.2748 6.49012 13.7753 5.65134Z" fill="#77311D"/>
<path d="M13.7753 5.65134L13.6968 5.32377L13.6968 5.32377L13.7753 5.65134ZM21.6532 10.4482L21.3262 10.5289L21.3894 10.7851H21.6532V10.4482ZM21.6552 10.4482L21.9827 10.3697L21.9208 10.1114H21.6552V10.4482ZM23.1903 16.8564L23.2661 17.1846L23.597 17.1083L23.5179 16.7779L23.1903 16.8564ZM23.1649 16.8623L23.0892 16.5341L22.7856 16.6041L22.8318 16.9122L23.1649 16.8623ZM18.2177 24.1904L18.2962 24.518L18.2962 24.518L18.2177 24.1904ZM10.4862 19.8994L10.8058 19.793L10.7055 19.4915L10.3987 19.5741L10.4862 19.8994ZM10.4608 19.9062L10.1333 19.9847L10.214 20.3215L10.5484 20.2315L10.4608 19.9062ZM8.94033 13.5605L9.2679 13.482L9.26766 13.4811L8.94033 13.5605ZM8.93544 13.541L8.60787 13.6195L8.60787 13.6195L8.93544 13.541ZM8.93056 13.5205L8.60135 13.592L8.60274 13.5979L8.93056 13.5205ZM8.92568 13.498H8.58884V13.5342L8.59652 13.5696L8.92568 13.498ZM8.92568 13.497H9.26252V13.4584L9.25377 13.4208L8.92568 13.497ZM13.7753 5.65134L13.8538 5.97891C17.1743 5.18335 20.5097 7.21877 21.3262 10.5289L21.6532 10.4482L21.9803 10.3675C21.0752 6.69833 17.3778 4.44183 13.6968 5.32377L13.7753 5.65134ZM21.6532 10.4482V10.7851H21.6552V10.4482V10.1114H21.6532V10.4482ZM21.6552 10.4482L21.3276 10.5267L22.8628 16.9349L23.1903 16.8564L23.5179 16.7779L21.9827 10.3697L21.6552 10.4482ZM23.1903 16.8564L23.1146 16.5282L23.0892 16.5341L23.1649 16.8623L23.2407 17.1905L23.2661 17.1846L23.1903 16.8564ZM23.1649 16.8623L22.8318 16.9122C23.3045 20.0634 21.2954 23.1065 18.1392 23.8628L18.2177 24.1904L18.2962 24.518C21.7955 23.6794 24.0221 20.3059 23.4981 16.8123L23.1649 16.8623ZM18.2177 24.1904L18.1392 23.8628C14.9826 24.6191 11.8123 22.8166 10.8058 19.793L10.4862 19.8994L10.1666 20.0058C11.2825 23.358 14.7964 25.3565 18.2962 24.518L18.2177 24.1904ZM10.4862 19.8994L10.3987 19.5741L10.3733 19.581L10.4608 19.9062L10.5484 20.2315L10.5738 20.2246L10.4862 19.8994ZM10.4608 19.9062L10.7884 19.8277L9.2679 13.482L8.94033 13.5605L8.61276 13.639L10.1333 19.9847L10.4608 19.9062ZM8.94033 13.5605L9.26766 13.4811C9.25936 13.4469 9.26861 13.4859 9.26301 13.4625L8.93544 13.541L8.60787 13.6195C8.60927 13.6253 8.61064 13.6307 8.61143 13.6338C8.61241 13.6376 8.61273 13.6389 8.61299 13.64L8.94033 13.5605ZM8.93544 13.541L9.26302 13.4625C9.26143 13.4559 9.25989 13.4494 9.25838 13.443L8.93056 13.5205L8.60274 13.5979C8.60446 13.6052 8.60618 13.6124 8.60787 13.6195L8.93544 13.541ZM8.93056 13.5205L9.25971 13.4489L9.25483 13.4265L8.92568 13.498L8.59652 13.5696L8.60141 13.592L8.93056 13.5205ZM8.92568 13.498H9.26252V13.497H8.92568H8.58884V13.498H8.92568ZM8.92568 13.497L9.25377 13.4208C8.48192 10.1003 10.5335 6.77451 13.8538 5.97891L13.7753 5.65134L13.6968 5.32377C10.0161 6.20573 7.74197 9.89253 8.59758 13.5733L8.92568 13.497Z" fill="black" mask="url(#path-9-inside-1_227_328)"/>
</g>
<path d="M15.9996 19.1297C16.4156 19.6726 17.0461 20.274 18.0186 20.1369C18.9912 19.9997 19.4239 19.3288 19.2963 18.7855" stroke="black" stroke-width="0.336842"/>
<path d="M18.4419 11.1339C18.9191 10.9093 20.0419 10.7044 20.7156 11.6812" stroke="black" stroke-width="0.336842" stroke-linecap="round"/>
<path d="M12.0905 13.2649C12.2649 12.7672 12.9058 11.8228 14.0747 12.0272" stroke="black" stroke-width="0.336842" stroke-linecap="round"/>
<path d="M23.7244 11.0982C23.7244 5.53275 20.6542 1.76838 16.9145 1.76837C12.1235 1.76837 7.24219 3.56554 7.24219 12.0635C7.24219 14.1661 8.13978 15.7327 9.39498 16.8875C9.26917 16.7301 9.1678 16.5891 9.10044 16.4731C8.85701 14.201 11.5565 12.4571 14.1981 10.7507C15.6004 9.84475 16.9864 8.94939 17.9071 7.99116C18.7151 8.449 21.0898 10.367 21.5422 11.1427C21.7849 11.5587 22.1746 12.9843 22.4408 14.6483C23.3114 13.6027 23.7244 12.5563 23.7244 11.0982Z" fill="white" stroke="black" stroke-width="0.336842"/>
<path d="M17.959 7.93643C19.0684 6.93058 20.728 4.63488 20.6215 3.14386" stroke="black" stroke-width="0.336842"/>
<ellipse cx="14.1151" cy="14.1202" rx="0.757895" ry="0.842105" transform="rotate(-6.77646 14.1151 14.1202)" fill="black"/>
<ellipse cx="19.507" cy="13.2778" rx="0.757895" ry="0.842105" transform="rotate(-6.27568 19.507 13.2778)" fill="black"/>
<circle cx="19.7471" cy="13.3895" r="2.18947" stroke="#F4D150" stroke-width="0.336842"/>
<circle cx="14.105" cy="14.1474" r="2.18947" stroke="#F4D150" stroke-width="0.336842"/>
<path d="M17.6418 13.9789C17.6418 13.8002 17.5708 13.6289 17.4445 13.5026C17.3181 13.3762 17.1468 13.3052 16.9681 13.3052C16.7894 13.3052 16.6181 13.3762 16.4918 13.5026C16.3654 13.6289 16.2944 13.8002 16.2944 13.9789" stroke="#F4D150" stroke-width="0.336842"/>
<path d="M11.9575 14.3158L9.43115 14.779" stroke="#F4D150" stroke-width="0.336842"/>
<path d="M16.8521 14.9341C16.8692 15.2577 16.9951 15.9515 17.3615 16.1381C17.8194 16.3714 17.4604 17.1447 16.6031 17.0951" stroke="black" stroke-width="0.336842"/>
<path d="M10.4838 15.1727C10.2876 15.1081 10.0758 15.0737 9.85895 15.0737C8.9753 15.0737 8.25896 15.6211 8.34316 16.6316C8.43088 17.6843 9.05951 18.0632 9.94316 18.0632C10.0415 18.0632 10.1377 18.0546 10.2312 18.038C10.3331 18.02 10.4317 17.9925 10.5259 17.9567" stroke="black" stroke-width="0.673684"/>
<path d="M10.568 17.9399C10.376 18.0193 10.1649 18.0632 9.94316 18.0632C9.05951 18.0632 8.43088 17.6843 8.34316 16.6316C8.25896 15.6211 8.9753 15.0737 9.85895 15.0737C10.1232 15.0737 10.3799 15.1248 10.6101 15.2194L10.568 17.9399Z" fill="#77311D"/>
<path d="M10.2312 15.7895C9.89432 15.6351 9.15326 15.5537 8.88379 16.4632" stroke="black" stroke-width="0.336842"/>
<path d="M9.34717 15.8316C9.52962 15.986 9.87769 16.4632 9.81033 17.1369" stroke="black" stroke-width="0.336842"/>
<path d="M15.4946 27.0261C16.2908 27.0261 16.9106 27.1481 17.4985 27.3083C17.9323 27.4266 18.3707 27.5733 18.8442 27.7039L19.3306 27.8269L19.3423 27.8298L19.355 27.8308C23.2382 28.1512 25.5651 29.8775 27.2554 32.2527H4.24561C5.52956 29.9421 7.31797 28.4153 10.1343 27.6375L10.7319 27.4871C11.9118 27.2181 13.2622 27.0675 14.8159 27.0339L15.4946 27.0261Z" fill="#9287FF" stroke="black" stroke-width="0.336842"/>
<path d="M9.76248 27.6701L10.5333 26.0198C10.5517 25.9804 10.5974 25.9616 10.6384 25.9762C13.8323 27.1067 16.7377 27.0271 19.4303 26.2776C19.4642 26.2681 19.5004 26.2806 19.5212 26.309L20.6944 27.9134C20.7267 27.9575 20.7102 28.0197 20.6594 28.0397C17.8293 29.151 12.5189 28.9621 9.80329 27.7815C9.76021 27.7628 9.7426 27.7126 9.76248 27.6701Z" fill="#E0DDFF" stroke="black" stroke-width="0.336842"/>
</g>
<defs>
<clipPath id="clip0_227_328">
<rect width="16.8421" height="27.7895" fill="white" transform="translate(7.57861 3.62109)"/>
</clipPath>
</defs>
</svg>
