<svg width="24" height="24" viewBox="0 0 24 24" fill="none" xmlns="http://www.w3.org/2000/svg">
<g clip-path="url(#clip0_227_23925)">
<path d="M0 12C0 5.37258 5.37258 0 12 0C18.6274 0 24 5.37258 24 12C24 18.6274 18.6274 24 12 24C5.37258 24 0 18.6274 0 12Z" fill="#1769FF"/>
<path d="M15.4941 9.87891C16.0035 9.87893 16.4623 9.97 16.8701 10.1504C17.2786 10.3301 17.6151 10.615 17.8799 11.0039C18.1214 11.3469 18.2759 11.7451 18.3467 12.1973C18.3881 12.4616 18.4052 12.8446 18.3984 13.3428H14.1357C14.1613 13.9211 14.3637 14.3272 14.749 14.5596C14.9823 14.7043 15.2632 14.7773 15.5928 14.7773C15.9396 14.7773 16.223 14.6886 16.4404 14.5127C16.5601 14.4169 16.6655 14.2845 16.7559 14.1152H18.3174C18.276 14.4568 18.0866 14.8058 17.751 15.1592C17.2273 15.7195 16.4935 15.9999 15.5508 16C14.7719 16 14.084 15.7637 13.4902 15.29C12.8936 14.8171 12.5977 14.0465 12.5977 12.9805C12.5977 11.9805 12.8658 11.2135 13.4023 10.6797C13.9404 10.1473 14.6369 9.87891 15.4941 9.87891ZM9.42188 8C10.3867 8.01411 11.069 8.29152 11.4717 8.83203C11.7132 9.16388 11.835 9.55997 11.835 10.0225C11.835 10.4984 11.7133 10.8823 11.4688 11.1719C11.3318 11.3337 11.1308 11.4826 10.8652 11.6162C11.2686 11.7617 11.5733 11.9906 11.7803 12.3047C11.9849 12.618 12.0879 12.9999 12.0879 13.4482C12.0879 13.9108 11.9699 14.3256 11.7344 14.6924C11.5854 14.9351 11.3991 15.1403 11.1748 15.3066C10.9227 15.4974 10.6252 15.627 10.2812 15.6982C9.93741 15.7687 9.56582 15.8037 9.16406 15.8037H5.59961V8H9.42188ZM7.17676 12.3682V14.4492H9.09668C9.43986 14.4492 9.70803 14.4028 9.89844 14.3115C10.2452 14.1408 10.4179 13.8173 10.418 13.3379C10.418 12.931 10.2514 12.6522 9.91504 12.5C9.7269 12.4154 9.46267 12.3711 9.12402 12.3682H7.17676ZM15.4951 11.124C15.1038 11.124 14.798 11.2344 14.582 11.4541C14.3661 11.6738 14.2296 11.9712 14.1738 12.3467H16.8105C16.7826 11.946 16.6455 11.6431 16.4033 11.4346C16.1581 11.2275 15.8562 11.1241 15.4951 11.124ZM7.17676 9.35547V11.0771H9.09961C9.44197 11.0771 9.7213 11.012 9.93652 10.8828C10.1503 10.7536 10.2578 10.5249 10.2578 10.1982C10.2578 9.83388 10.1168 9.59388 9.83398 9.47656C9.58869 9.39565 9.27689 9.35549 8.89844 9.35547H7.17676ZM17.168 9.33496H13.7783V8.36426H17.168V9.33496Z" fill="white"/>
</g>
<defs>
<clipPath id="clip0_227_23925">
<rect width="24" height="24" fill="white"/>
</clipPath>
</defs>
</svg>
