<svg width="32" height="32" viewBox="0 0 32 32" fill="none" xmlns="http://www.w3.org/2000/svg">
<g clip-path="url(#clip0_227_614)">
<path d="M16.2394 0H16.376L15.9439 0.0421589C18.6333 0.0569145 21.3259 0.70827 23.6848 2.0036C26.7439 3.66361 29.232 6.34491 30.6398 9.51843C31.5602 11.5895 32.0454 13.8576 31.9967 16.1247C32.0094 19.8031 30.6228 23.4509 28.2374 26.2534C24.7928 26.6876 21.2252 26.9511 17.8314 26.0532C15.8178 25.5546 14.0277 24.2625 12.8816 22.5466C11.7175 20.4966 12.1158 17.6593 13.8805 16.0657C15.1092 14.9569 16.8824 14.4816 18.5041 14.842C19.9393 15.134 21.2147 16.0647 21.9508 17.322C22.67 16.9458 23.384 16.56 24.1043 16.1859C23.5969 15.3364 22.9709 14.5469 22.1881 13.9325C20.8715 12.8954 19.2021 12.3325 17.5285 12.2862C15.9407 12.2672 14.3487 12.7394 13.0426 13.6416C10.3903 15.4354 9.07788 18.9947 9.99519 22.0607C10.5809 24.1412 12.1168 25.8508 13.9091 27.0102C15.3348 27.9218 16.9862 28.4162 18.6418 28.7144C20.917 29.1149 23.2399 28.9674 25.5279 28.7735C25.298 29.0085 24.9527 28.9948 24.6508 29.0485C22.2093 29.409 19.6915 29.4206 17.2785 28.8567C14.9641 28.3234 12.7598 27.1872 11.1159 25.4619C8.69974 22.8659 8.1341 18.6469 10.0323 15.6083C11.0237 13.9904 12.478 12.5992 14.2862 11.9383C16.2606 11.2058 18.5094 11.2132 20.4732 11.9773C20.7963 11.2322 21.1479 10.4997 21.4646 9.75241C18.2255 8.43494 14.3561 8.77643 11.4146 10.6694C9.80452 11.7054 8.47941 13.1546 7.51551 14.7999C6.44144 16.6918 6.09401 18.9494 6.42237 21.0879C6.8556 23.9716 8.43916 26.6708 10.761 28.452C11.8902 29.3394 13.2248 29.937 14.5986 30.3407C16.3739 30.8656 18.2265 31.0943 20.0749 31.1365C20.3365 31.1407 20.5992 31.1512 20.8598 31.1839C20.488 31.3757 20.0569 31.3177 19.6533 31.3293C17.4575 31.3747 15.2448 31.0353 13.1856 30.2701C11.619 29.683 10.1403 28.8072 8.97832 27.5972C7.75913 26.3925 6.73379 24.9665 6.13955 23.3539C5.44151 21.4452 5.22331 19.3467 5.59722 17.3452C6.05058 14.9643 7.417 12.8237 9.20605 11.2069C11.3521 9.25599 14.2576 8.14826 17.1662 8.19569C17.1673 7.37781 17.1652 6.55887 17.1684 5.74099C14.658 5.74204 12.1465 6.39445 9.97612 7.655C7.1077 9.31501 4.85364 11.9826 3.65775 15.0581C2.77964 17.3621 2.45128 19.9296 3.04763 22.3442C3.72978 25.2932 5.61205 27.9176 8.13304 29.5956C8.52602 29.8822 8.97514 30.0814 9.3607 30.3797C9.18275 30.3681 9.00162 30.347 8.84167 30.2627C8.02924 29.8759 7.26976 29.3879 6.54842 28.8525C5.24979 27.8755 4.02531 26.7699 3.09636 25.4303C1.93437 23.8251 1.01813 22.028 0.511812 20.1087C0.0309174 18.3339 -0.0781844 16.4768 0.0489244 14.6481C0.355045 10.7273 2.21083 6.95833 5.11845 4.29705C7.48373 2.109 10.5259 0.657679 13.7269 0.213956C14.5584 0.0811559 15.4037 0.0938036 16.2394 0Z" fill="#673398"/>
</g>
<defs>
<clipPath id="clip0_227_614">
<rect width="32" height="32" fill="white"/>
</clipPath>
</defs>
</svg>
