<svg width="20" height="20" viewBox="0 0 20 20" fill="none" xmlns="http://www.w3.org/2000/svg">
<path fill-rule="evenodd" clip-rule="evenodd" d="M17.3709 19.2214C17.8809 19.7314 18.7109 19.7314 19.2209 19.2214C19.7309 18.7114 19.7309 17.8813 19.2209 17.3713L11.8409 10.0012L19.2209 2.63104C19.7309 2.12104 19.7309 1.29094 19.2209 0.780937C18.7109 0.270938 17.8809 0.270938 17.3709 0.780937L10.0009 8.16131L2.63091 0.780937C2.12091 0.270938 1.29094 0.270938 0.780937 0.780937C0.270938 1.29094 0.270938 2.12104 0.780937 2.63104L8.16094 10.0012L0.780937 17.3713C0.270938 17.8813 0.270938 18.7114 0.780937 19.2214C1.29094 19.7314 2.12091 19.7314 2.63091 19.2214L10.0009 11.841L17.3709 19.2214Z" fill="#3F434A"/>
</svg>
