<svg width="22" height="22" viewBox="0 0 22 22" fill="none" xmlns="http://www.w3.org/2000/svg">
<path d="M10.7881 0.830078C8.74808 0.830078 6.7581 1.44007 5.0581 2.57007C3.3681 3.70007 2.04806 5.30994 1.26806 7.18994C0.48806 9.07994 0.288094 11.1499 0.678094 13.1499C1.07809 15.1399 2.05804 16.9799 3.49804 18.4199C4.93804 19.8599 6.77807 20.84 8.77807 21.24C10.7781 21.64 12.848 21.4299 14.728 20.6499C16.608 19.8699 18.218 18.5501 19.348 16.8601C20.478 15.1701 21.088 13.1699 21.088 11.1399C21.078 8.40989 19.998 5.79011 18.068 3.86011C16.128 1.93011 13.5181 0.840078 10.7881 0.830078ZM15.688 9.33008L9.88805 14.8799C9.73806 15.0199 9.538 15.1001 9.328 15.1001C9.228 15.1001 9.12808 15.08 9.03808 15.04C8.93808 15.01 8.85808 14.9499 8.78808 14.8799L5.87805 12.1101C5.79805 12.0401 5.73798 11.9501 5.68798 11.8501C5.64798 11.7601 5.61803 11.65 5.60803 11.55C5.60803 11.44 5.61807 11.33 5.65807 11.23C5.69807 11.13 5.758 11.04 5.828 10.96C5.898 10.89 5.98801 10.83 6.08801 10.78C6.18801 10.74 6.28806 10.72 6.39806 10.72C6.50806 10.72 6.608 10.74 6.708 10.78C6.808 10.82 6.89801 10.88 6.96801 10.96L9.328 13.21L14.598 8.17993C14.748 8.04993 14.9481 7.97999 15.1581 7.98999C15.3581 7.99999 15.558 8.08999 15.698 8.23999C15.838 8.37999 15.9081 8.58004 15.9081 8.79004C15.9081 8.99004 15.828 9.19008 15.688 9.33008Z" fill="#07A737"/>
</svg>
