<svg width="32" height="32" viewBox="0 0 32 32" fill="none" xmlns="http://www.w3.org/2000/svg">
<g clip-path="url(#clip0_227_628)">
<mask id="mask0_227_628" style="mask-type:luminance" maskUnits="userSpaceOnUse" x="0" y="1" width="32" height="31">
<path fill-rule="evenodd" clip-rule="evenodd" d="M15.9999 32C24.5419 32 31.4665 25.0753 31.4665 16.5333C31.4665 7.99132 24.5419 1.06665 15.9999 1.06665C7.45787 1.06665 0.533203 7.99132 0.533203 16.5333C0.533203 25.0753 7.45787 32 15.9999 32Z" fill="white"/>
</mask>
<g mask="url(#mask0_227_628)">
<path d="M-0.00195312 32.0004H32.0017V-0.000488281H-0.00195312V32.0004Z" fill="white"/>
</g>
<mask id="mask1_227_628" style="mask-type:luminance" maskUnits="userSpaceOnUse" x="0" y="0" width="32" height="32">
<path fill-rule="evenodd" clip-rule="evenodd" d="M7.60089 29.6208C3.03943 26.802 0 21.756 0 16C0 7.16345 7.16345 0 16 0C24.8365 0 32 7.16345 32 16C32 24.8365 24.8365 32 16 32C15.5759 32 15.1557 31.9835 14.74 31.9511L16.3139 27.6268C16.5743 26.9113 17.4436 25.9528 18.2102 25.1068C18.6491 24.6238 19.0273 24.2059 19.1718 23.9604C19.8686 22.7737 21.994 19.2089 22.0155 19.1728C22.4522 18.5464 23.1531 17.4755 23.5852 16.7765L25.9453 12.9421C26.3771 12.2412 26.4097 11.3615 26.0181 10.9819C25.9493 10.9155 25.8687 10.8652 25.7788 10.8324C25.3461 10.6749 24.7711 10.9303 24.3477 11.4678L21.9752 14.7761C21.7008 15.1248 21.3939 15.4107 21.0968 15.6875C20.8496 15.9177 20.5945 16.1562 20.3661 16.4221L20.1237 16.7056C20.0942 16.7395 20.0531 16.7604 20.0084 16.7633C19.9637 16.7663 19.9213 16.7607 19.8826 16.7466C19.7979 16.7158 19.6617 16.6192 19.6987 16.3179C19.7067 16.2808 20.122 14.5354 19.0205 14.0703L18.9724 14.052C18.3771 13.8353 17.9029 14.2076 17.3767 14.8336C17.2975 14.9277 17.1356 14.9365 17.054 14.9068C16.8926 14.84 16.8213 14.6969 16.8587 14.5306C17.0465 13.6907 16.7003 12.9053 16.0355 12.6633L15.9843 12.6463C15.4057 12.4606 14.7075 12.6984 14.2889 13.2264C14.2734 13.2455 14.2554 13.2607 14.2341 13.2714C14.1509 13.3508 14.0082 13.4611 13.8529 13.4046C13.6867 13.3441 13.6471 13.1417 13.6321 12.9944L13.6134 12.8118C13.5954 12.6309 13.5721 12.4223 13.5456 12.1981C13.4624 11.4656 13.3586 10.5536 13.3752 9.94782L13.6304 5.64258C13.6481 5.01381 13.3588 4.47792 12.911 4.3149C12.7846 4.26891 12.6517 4.25456 12.5156 4.27175C11.8824 4.35319 11.3386 5.07097 11.2768 5.90631L10.8069 10.2591C10.7744 10.6997 10.7846 11.3152 10.7947 11.9103C10.8023 12.3519 10.8094 12.769 10.7989 13.1059L10.758 14.4942C10.7434 14.9618 10.5941 15.297 10.3136 15.4905C10.1589 15.5994 9.63838 15.9735 9.07545 16.4983C9.01365 16.5561 8.95109 16.611 8.88976 16.6653C8.47424 17.0334 8.11591 17.3515 8.08142 18.4074C8.06325 18.9033 8.08622 19.4075 8.15769 20.1479C8.23234 20.9254 8.46206 21.4131 8.70581 21.9293C9.05303 22.6649 9.73465 23.7584 9.27566 25.0194C9.27198 25.0295 8.16523 28.0703 7.60089 29.6208Z" fill="white"/>
</mask>
<g mask="url(#mask1_227_628)">
<path d="M-0.00195312 32.0004H32.0017V-0.000488281H-0.00195312V32.0004Z" fill="#0043FF"/>
</g>
</g>
<defs>
<clipPath id="clip0_227_628">
<rect width="32" height="32" fill="white"/>
</clipPath>
</defs>
</svg>
