<svg width="24" height="24" viewBox="0 0 24 24" fill="none" xmlns="http://www.w3.org/2000/svg">
<g clip-path="url(#clip0_227_23936)">
<path d="M0 12C0 5.37258 5.37258 0 12 0C18.6274 0 24 5.37258 24 12C24 18.6274 18.6274 24 12 24C5.37258 24 0 18.6274 0 12Z" fill="#F26798"/>
<path d="M11.999 5.59961C12.4323 5.59961 12.8663 5.64342 13.2881 5.72949C13.6989 5.81311 14.1037 5.93842 14.4902 6.10156C14.8696 6.26256 15.2363 6.46018 15.5781 6.69141C15.9164 6.92035 16.2348 7.1825 16.5244 7.4707C16.8135 7.76062 17.0772 8.0781 17.3057 8.41699C17.5375 8.75772 17.7355 9.12357 17.8955 9.50293C18.0593 9.88831 18.1842 10.2928 18.2686 10.7041C18.3551 11.1245 18.3994 11.5581 18.3994 11.9912C18.3994 12.4239 18.3551 12.8562 18.2686 13.2773C18.1842 13.6885 18.0592 14.0926 17.8955 14.4785C17.7356 14.8575 17.5374 15.2229 17.3057 15.5635C17.0772 15.9021 16.8135 16.2202 16.5244 16.5098C16.2348 16.798 15.9164 17.0607 15.5781 17.29C15.2363 17.5203 14.8696 17.7182 14.4902 17.8789C14.1038 18.0417 13.6989 18.1668 13.2881 18.251C12.8663 18.3377 12.4323 18.3818 11.999 18.3818C11.5655 18.3818 11.132 18.3377 10.7109 18.251C10.2994 18.1667 9.89409 18.0418 9.50781 17.8789C9.12845 17.7182 8.76178 17.5203 8.41992 17.29C8.08152 17.0607 7.76268 16.7981 7.47363 16.5098C7.18428 16.2202 6.92112 15.9021 6.69238 15.5635C6.46186 15.2228 6.26311 14.8575 6.10254 14.4785C5.93878 14.0925 5.81321 13.6886 5.72852 13.2773C5.64293 12.8562 5.59964 12.4239 5.59961 11.9912C5.59961 11.5581 5.64382 11.1245 5.72949 10.7041C5.81418 10.2928 5.93879 9.88828 6.10254 9.50293C6.26312 9.12355 6.46181 8.75772 6.69238 8.41699C6.92113 8.07813 7.18428 7.7606 7.47363 7.4707C7.76271 7.18234 8.08244 6.92046 8.4209 6.69141C8.76257 6.46034 9.12869 6.2625 9.50781 6.10156C9.89409 5.93832 10.2993 5.81311 10.7109 5.72949C11.132 5.64344 11.5655 5.59963 11.999 5.59961ZM12.9297 12.8828C9.70489 14.0054 8.65104 16.2683 8.63965 16.293C9.56746 17.0135 10.7316 17.4482 11.999 17.4482C12.7558 17.4482 13.4769 17.2942 14.1328 17.0156C14.0519 16.5387 13.7349 14.867 12.9658 12.8711C12.9538 12.8751 12.9415 12.8785 12.9297 12.8828ZM17.3955 12.8555C17.2823 12.819 15.7529 12.3358 13.9893 12.6182C14.706 14.5848 14.9979 16.187 15.0537 16.5166C16.2808 15.6896 17.1524 14.3764 17.3955 12.8555ZM12.1494 11.04C9.33533 11.8812 6.63495 11.8201 6.53809 11.8164C6.53651 11.8751 6.53418 11.9325 6.53418 11.9912C6.5343 13.3931 7.064 14.6713 7.93457 15.6377C7.93269 15.6349 9.42841 12.9846 12.3779 12.0322C12.4489 12.0086 12.5212 11.9873 12.5928 11.9668C12.4557 11.6568 12.3059 11.3463 12.1494 11.04ZM16.2197 8.52344C16.2075 8.5408 15.3312 9.80452 13.1758 10.6836C13.3025 10.9437 13.4247 11.2086 13.5381 11.4746C13.5783 11.5699 13.6179 11.6634 13.6562 11.7568C15.5327 11.5211 17.3816 11.9179 17.4629 11.9346C17.4504 10.6408 16.9866 9.45306 16.2197 8.52344ZM9.66699 7.05371C8.14297 7.77239 7.00614 9.17524 6.65137 10.8652C6.79989 10.8665 9.0759 10.8947 11.6973 10.1992C10.7513 8.52092 9.73981 7.15079 9.66699 7.05371ZM11.999 6.5332C11.5552 6.53323 11.1245 6.58737 10.7119 6.68652C10.796 6.79928 11.8213 8.15836 12.7549 9.87012C14.8171 9.09808 15.5959 7.91449 15.6094 7.89453C14.6471 7.04725 13.3828 6.5332 11.999 6.5332Z" fill="white"/>
</g>
<defs>
<clipPath id="clip0_227_23936">
<rect width="24" height="24" fill="white"/>
</clipPath>
</defs>
</svg>
