<svg width="32" height="32" viewBox="0 0 32 32" fill="none" xmlns="http://www.w3.org/2000/svg">
<g clip-path="url(#clip0_227_638)">
<path d="M0 16C0 7.16344 7.16344 0 16 0C24.8366 0 32 7.16344 32 16C32 24.8366 24.8366 32 16 32C7.16344 32 0 24.8366 0 16Z" fill="#2E2882"/>
<path d="M20.3521 21.4841L22.0952 20.3601V21.6208L16.2788 25.0671L10.4614 21.6208V20.3601L12.2046 21.4841L16.2788 18.1443L20.3521 21.4841ZM16.2661 17.4236L12.2046 20.7732L6.3999 17.0291L10.4136 13.8533L16.2661 17.4236ZM26.1333 17.0291L20.3286 20.7732L16.2661 17.4236L22.1196 13.8533L26.1333 17.0291ZM16.2661 10.283L10.4136 13.8533L6.3999 10.6775L12.2046 6.93335L16.2661 10.283ZM26.1333 10.6775L22.1196 13.8533L16.2661 10.283L20.3286 6.93335L26.1333 10.6775Z" fill="#FEB0A5"/>
</g>
<defs>
<clipPath id="clip0_227_638">
<rect width="32" height="32" fill="white"/>
</clipPath>
</defs>
</svg>
