<svg width="33" height="32" viewBox="0 0 33 32" fill="none" xmlns="http://www.w3.org/2000/svg">
<g clip-path="url(#clip0_227_19146)">
<path d="M32.4951 16C32.4951 7.16344 25.3317 0 16.4951 0C7.65856 0 0.495117 7.16344 0.495117 16C0.495117 23.9859 6.34606 30.6053 13.9951 31.8056V20.625H9.93262V16H13.9951V12.475C13.9951 8.465 16.3839 6.25 20.0386 6.25C21.7886 6.25 23.6201 6.5625 23.6201 6.5625V10.5H21.6026C19.6151 10.5 18.9951 11.7334 18.9951 13V16H23.4326L22.7232 20.625H18.9951V31.8056C26.6442 30.6053 32.4951 23.9859 32.4951 16Z" fill="#1877F2"/>
<path d="M21.7906 20.375L22.5 15.75H18.0625V12.75C18.0625 11.4847 18.6825 10.25 20.67 10.25H22.6875V6.3125C22.6875 6.3125 20.8566 6 19.1059 6C15.4513 6 13.0625 8.215 13.0625 12.225V15.75H9V20.375H13.0625V31.5556C14.7191 31.8148 16.4059 31.8148 18.0625 31.5556V20.375H21.7906Z" fill="white"/>
</g>
<defs>
<clipPath id="clip0_227_19146">
<rect width="32" height="32" fill="white" transform="translate(0.495117)"/>
</clipPath>
</defs>
</svg>
