<svg width="32" height="32" viewBox="0 0 32 32" fill="none" xmlns="http://www.w3.org/2000/svg">
<g clip-path="url(#clip0_227_23962)">
<path d="M-0.666016 16C-0.666016 7.16347 6.49745 0 15.334 0C24.1705 0 31.334 7.16347 31.334 16C31.334 24.8365 24.1705 32 15.334 32C6.49745 32 -0.666016 24.8365 -0.666016 16Z" fill="#3F3F3F"/>
<path d="M12.7996 25.6002C14.5669 25.6002 15.9996 24.1675 15.9996 22.4002V19.2002H12.7996C11.0323 19.2002 9.59961 20.6329 9.59961 22.4002C9.59961 24.1675 11.0323 25.6002 12.7996 25.6002Z" fill="#0ACF83"/>
<path d="M9.59961 15.9998C9.59961 14.2325 11.0323 12.7998 12.7996 12.7998H15.9996V19.1998H12.7996C11.0323 19.1998 9.59961 17.7671 9.59961 15.9998Z" fill="#A259FF"/>
<path d="M9.59961 9.60039C9.59961 7.83308 11.0323 6.40039 12.7996 6.40039H15.9996V12.8004H12.7996C11.0323 12.8004 9.59961 11.3677 9.59961 9.60039Z" fill="#F24E1E"/>
<path d="M16 6.40039H19.2C20.9673 6.40039 22.4 7.83308 22.4 9.60039C22.4 11.3677 20.9673 12.8004 19.2 12.8004H16V6.40039Z" fill="#FF7262"/>
<path d="M22.4 15.9998C22.4 17.7671 20.9673 19.1998 19.2 19.1998C17.4327 19.1998 16 17.7671 16 15.9998C16 14.2325 17.4327 12.7998 19.2 12.7998C20.9673 12.7998 22.4 14.2325 22.4 15.9998Z" fill="#1ABCFE"/>
</g>
<defs>
<clipPath id="clip0_227_23962">
<rect width="32" height="32" fill="white"/>
</clipPath>
</defs>
</svg>
