<svg width="120" height="25" viewBox="0 0 120 25" fill="none" xmlns="http://www.w3.org/2000/svg">
<path d="M8.92249 24H2.70349V19.2002H8.68848C10.0005 19.2002 11.1095 18.9798 12.0165 18.5498C12.9225 18.0998 13.6095 17.3799 14.0785 16.3799C14.5475 15.3799 14.7815 14.0399 14.7815 12.3599C14.7815 10.6799 14.5475 9.33984 14.0785 8.33984C13.6095 7.33984 12.9115 6.61994 11.9845 6.18994C11.0685 5.73994 9.93848 5.52002 8.59448 5.52002H2.6095V0.720215H8.90649C11.2815 0.720215 13.3235 1.19012 15.0315 2.12012C16.7505 3.05012 18.0735 4.39012 19.0005 6.12012C19.9275 7.86012 20.3915 9.93986 20.3915 12.3599C20.3915 14.7799 19.9275 16.8599 19.0005 18.6099C18.0735 20.3499 16.7505 21.6799 15.0315 22.6099C13.3235 23.5399 11.2865 24 8.92249 24ZM5.92249 0.720215V24H0.3125V0.720215H5.92249ZM33.7195 24.3101C31.5005 24.3101 29.5475 23.8299 27.8595 22.8799C26.1825 21.9099 24.8755 20.53 23.9385 18.75C23.0005 16.97 22.5315 14.8502 22.5315 12.4102C22.5315 9.86016 23.0265 7.70016 24.0165 5.91016C25.0165 4.11016 26.3545 2.75006 28.0315 1.81006C29.7085 0.880059 31.5835 0.410156 33.6565 0.410156C35.0105 0.410156 36.2665 0.59998 37.4225 0.97998C38.5785 1.36998 39.6045 1.92012 40.5005 2.62012C41.4065 3.33012 42.1355 4.17014 42.6885 5.14014C43.2505 6.11014 43.6045 7.17008 43.7505 8.33008H38.0625C37.9385 7.86008 37.7505 7.44006 37.5005 7.06006C37.2505 6.69006 36.9385 6.38012 36.5625 6.12012C36.1985 5.86012 35.7815 5.66979 35.3125 5.52979C34.8445 5.39979 34.3285 5.33008 33.7665 5.33008C32.6515 5.33008 31.6775 5.60016 30.8445 6.16016C30.0215 6.70016 29.3855 7.4898 28.9385 8.5498C28.4905 9.5898 28.2665 10.8501 28.2665 12.3301C28.2665 13.8201 28.4845 15.0901 28.9225 16.1401C29.3595 17.1901 29.9845 18.0001 30.7975 18.5601C31.6205 19.1101 32.6155 19.3901 33.7815 19.3901C34.8125 19.3901 35.6825 19.2201 36.3915 18.8901C37.1095 18.5501 37.6515 18.0599 38.0165 17.4399C38.3915 16.8099 38.5785 16.08 38.5785 15.23L39.6255 15.3799H33.9695V11.2798H44.0005V14.3398C44.0005 16.4298 43.5575 18.2102 42.6725 19.7002C41.7975 21.1902 40.5835 22.3301 39.0315 23.1201C37.4905 23.9201 35.7195 24.3101 33.7195 24.3101ZM54.5475 24.3301C52.7035 24.3301 51.1255 23.9499 49.8125 23.1899C48.5005 22.4299 47.4955 21.3798 46.7975 20.0298C46.0995 18.6798 45.7505 17.1101 45.7505 15.3301C45.7505 13.5401 46.0995 11.9701 46.7975 10.6201C47.4955 9.27012 48.5005 8.2102 49.8125 7.4502C51.1355 6.6902 52.7145 6.31006 54.5475 6.31006C56.1615 6.31006 57.5685 6.6102 58.7665 7.2002C59.9645 7.7902 60.9015 8.60992 61.5785 9.66992C62.2555 10.7199 62.6155 11.9702 62.6565 13.4102H57.4695C57.3965 12.8102 57.2345 12.2999 56.9845 11.8799C56.7455 11.4499 56.4225 11.1201 56.0165 10.8901C55.6205 10.6601 55.1565 10.5498 54.6255 10.5498C53.9795 10.5498 53.4115 10.7298 52.9225 11.0898C52.4435 11.4498 52.0685 11.9799 51.7975 12.6899C51.5365 13.3899 51.4065 14.2498 51.4065 15.2798C51.4065 16.3098 51.5365 17.1902 51.7975 17.9102C52.0685 18.6102 52.4435 19.1598 52.9225 19.5298C53.4015 19.9098 53.9695 20.0898 54.6255 20.0898C55.3855 20.0898 56.0215 19.8401 56.5315 19.3301C57.0425 18.8101 57.3545 18.0802 57.4695 17.1602H62.6565C62.6045 18.5902 62.2455 19.8499 61.5785 20.9399C60.9115 22.0099 59.9845 22.8399 58.7975 23.4399C57.6095 24.0299 56.1935 24.3301 54.5475 24.3301ZM72.7345 24.3301C70.9015 24.3301 69.3285 23.9502 68.0165 23.2002C66.7035 22.4402 65.6935 21.3898 64.9845 20.0498C64.2865 18.6898 63.9385 17.1201 63.9385 15.3301C63.9385 13.5301 64.2865 11.9499 64.9845 10.6099C65.6935 9.25986 66.7035 8.2002 68.0165 7.4502C69.3285 6.6902 70.9015 6.31006 72.7345 6.31006C74.5685 6.31006 76.1415 6.6902 77.4535 7.4502C78.7765 8.2002 79.7865 9.25986 80.4845 10.6099C81.1935 11.9499 81.5475 13.5301 81.5475 15.3301C81.5475 17.1201 81.1935 18.6898 80.4845 20.0498C79.7865 21.3898 78.7765 22.4402 77.4535 23.2002C76.1415 23.9502 74.5685 24.3301 72.7345 24.3301ZM72.7665 20.0898C73.4435 20.0898 74.0105 19.9 74.4695 19.5C74.9275 19.1 75.2765 18.5501 75.5165 17.8301C75.7665 17.1001 75.8915 16.2598 75.8915 15.2998C75.8915 14.3298 75.7665 13.4898 75.5165 12.7798C75.2765 12.0698 74.9275 11.5301 74.4695 11.1401C74.0105 10.7401 73.4435 10.5498 72.7665 10.5498C72.0895 10.5498 71.5105 10.7401 71.0315 11.1401C70.5525 11.5301 70.1935 12.0698 69.9535 12.7798C69.7145 13.4898 69.5945 14.3298 69.5945 15.2998C69.5945 16.2598 69.7145 17.1001 69.9535 17.8301C70.1935 18.5501 70.5525 19.1 71.0315 19.5C71.5105 19.9 72.0895 20.0898 72.7665 20.0898ZM89.0945 14.0498V24H83.5315V6.52979H89.0315V9.75H89.1725C89.5685 8.69 90.1985 7.84998 91.0625 7.22998C91.9385 6.61998 93.0215 6.31006 94.3125 6.31006C95.5425 6.31006 96.6095 6.59014 97.5165 7.14014C98.4225 7.68014 99.1255 8.44994 99.6255 9.43994C100.125 10.4199 100.375 11.5599 100.375 12.8799V24H94.8125V13.9702C94.8125 13.0002 94.5685 12.2402 94.0785 11.7002C93.5895 11.1502 92.9015 10.8799 92.0165 10.8799C91.4325 10.8799 90.9225 11 90.4845 11.25C90.0475 11.5 89.7035 11.8598 89.4535 12.3398C89.2145 12.8098 89.0945 13.3798 89.0945 14.0498ZM108.562 14.0498V24H103V6.52979H108.5V9.75H108.641C109.036 8.69 109.667 7.84998 110.531 7.22998C111.406 6.61998 112.49 6.31006 113.781 6.31006C115.01 6.31006 116.078 6.59014 116.984 7.14014C117.891 7.68014 118.594 8.44994 119.094 9.43994C119.594 10.4199 119.844 11.5599 119.844 12.8799V24H114.281V13.9702C114.281 13.0002 114.036 12.2402 113.547 11.7002C113.057 11.1502 112.37 10.8799 111.484 10.8799C110.901 10.8799 110.391 11 109.953 11.25C109.516 11.5 109.172 11.8598 108.922 12.3398C108.682 12.8098 108.562 13.3798 108.562 14.0498Z" fill="#1A4BC1"/>
</svg>
