<svg width="25" height="25" viewBox="0 0 25 25" fill="none" xmlns="http://www.w3.org/2000/svg">
<g clip-path="url(#clip0_227_309)">
<path d="M12.5 24.5C19.1274 24.5 24.5 19.1274 24.5 12.5C24.5 5.87258 19.1274 0.5 12.5 0.5C5.87258 0.5 0.5 5.87258 0.5 12.5C0.5 19.1274 5.87258 24.5 12.5 24.5Z" fill="white"/>
<path d="M17.3233 14.9225C19.0415 13.97 20.3538 13.2424 20.4731 13.1761C20.8292 12.9787 21.2023 12.4749 20.4731 12.0723C20.2388 11.9426 18.9618 11.2373 17.3213 10.3307L15.0649 12.6337L17.3233 14.9225Z" fill="#FFE300"/>
<path d="M15.0649 12.6337L7.84814 19.9993C8.01112 20.0203 8.20714 19.9766 8.43261 19.8516C8.89939 19.5928 13.9123 16.8135 17.3234 14.9223L15.0649 12.6337Z" fill="#FF4E54"/>
<path d="M15.0647 12.6338L17.3211 10.3308C17.3211 10.3308 8.93448 5.69621 8.43241 5.41877C8.23942 5.3121 8.02901 5.27487 7.84277 5.31688L15.0647 12.6338Z" fill="#00F085"/>
<path d="M15.0651 12.6337L7.84306 5.31696C7.54476 5.38435 7.30029 5.64586 7.30029 6.17148V19.1215C7.30029 19.6165 7.4926 19.9646 7.84823 19.9994L15.0651 12.6337Z" fill="#00E0FF"/>
</g>
<defs>
<clipPath id="clip0_227_309">
<rect width="24" height="24" fill="white" transform="translate(0.5 0.5)"/>
</clipPath>
</defs>
</svg>
