<svg width="32" height="32" viewBox="0 0 32 32" fill="none" xmlns="http://www.w3.org/2000/svg">
<mask id="mask0_982_12716" style="mask-type:luminance" maskUnits="userSpaceOnUse" x="0" y="0" width="32" height="32">
<path d="M32 0H0V32H32V0Z" fill="white"/>
</mask>
<g mask="url(#mask0_982_12716)">
<path d="M16 32C24.8366 32 32 24.8366 32 16C32 7.16344 24.8366 0 16 0C7.16344 0 0 7.16344 0 16C0 24.8366 7.16344 32 16 32Z" fill="url(#paint0_linear_982_12716)"/>
<path d="M20.3149 5.33008C23.8189 5.33008 26.6699 8.18043 26.6699 11.6904V20.2998C26.6699 23.7998 23.8189 26.7002 20.3149 26.7002H11.6909C8.18692 26.7002 5.33594 23.7998 5.33594 20.2998V11.6904C5.33594 8.18043 8.18692 5.33008 11.6909 5.33008H20.3149ZM11.6909 7.48047C9.36692 7.48047 7.48293 9.36043 7.48193 11.6904V20.2998C7.48293 22.5998 9.36692 24.5 11.6909 24.5H20.3149C22.6389 24.5 24.5229 22.5998 24.5239 20.2998V11.6904C24.5229 9.36043 22.6389 7.48047 20.3149 7.48047H11.6909ZM16.0029 10.4805C19.0449 10.4805 21.5209 13 21.5209 16C21.5209 19 19.0449 21.5 16.0029 21.5C12.9609 21.5 10.4849 19 10.4849 16C10.4849 13 12.9609 10.4805 16.0029 10.4805ZM16.0029 12.5996C14.1409 12.5996 12.632 14.1 12.632 16C12.632 17.9 14.1409 19.4004 16.0029 19.4004C17.8649 19.4004 19.3739 17.9 19.3739 16C19.3739 14.1 17.8649 12.5996 16.0029 12.5996ZM21.5309 9.2002C22.2609 9.2002 22.8529 9.78953 22.8539 10.5195C22.8539 11.2495 22.2609 11.8496 21.5309 11.8496C20.8009 11.8496 20.2089 11.2495 20.2089 10.5195C20.2089 9.78953 20.8009 9.2002 21.5309 9.2002Z" fill="white"/>
</g>
<defs>
<linearGradient id="paint0_linear_982_12716" x1="6.5" y1="32" x2="21" y2="6.98492e-07" gradientUnits="userSpaceOnUse">
<stop stop-color="#FBD06F"/>
<stop offset="0.3" stop-color="#F16C2E"/>
<stop offset="0.6" stop-color="#C82E96"/>
<stop offset="1" stop-color="#4E6AD6"/>
</linearGradient>
</defs>
</svg>
