<svg width="24" height="24" viewBox="0 0 24 24" fill="none" xmlns="http://www.w3.org/2000/svg">
<path fill-rule="evenodd" clip-rule="evenodd" d="M2.25 7.5C2.25 7.5 2.25 6.87868 2.68934 6.43934C2.68934 6.43934 3.12868 6 3.75 6H20.25C20.25 6 20.8713 6 21.3107 6.43934C21.3107 6.43934 21.75 6.87868 21.75 7.5V19.5C21.75 19.5 21.75 20.1213 21.3107 20.5607C21.3107 20.5607 20.8713 21 20.25 21H3.75C3.75 21 3.12868 21 2.68934 20.5607C2.68934 20.5607 2.25 20.1213 2.25 19.5V7.5ZM3.75 7.5V19.5H20.25V7.5H3.75Z" fill="#1C1C1C"/>
<path d="M14.1213 4.62868C15 5.50736 15 6.75 15 6.75C15 7.16421 15.3358 7.5 15.75 7.5C16.1642 7.5 16.5 7.16421 16.5 6.75C16.5 4.88604 15.182 3.56802 15.182 3.56802C13.864 2.25 12 2.25 12 2.25C10.136 2.25 8.81802 3.56802 8.81802 3.56802C7.5 4.88604 7.5 6.75 7.5 6.75C7.5 7.16421 7.83579 7.5 8.25 7.5C8.66421 7.5 9 7.16421 9 6.75C9 5.50736 9.87868 4.62868 9.87868 4.62868C10.7574 3.75 12 3.75 12 3.75C13.2426 3.75 14.1213 4.62868 14.1213 4.62868Z" fill="#1C1C1C"/>
</svg>
