<svg width="32" height="32" viewBox="0 0 32 32" fill="none" xmlns="http://www.w3.org/2000/svg">
<mask id="mask0_982_12704" style="mask-type:luminance" maskUnits="userSpaceOnUse" x="0" y="0" width="32" height="32">
<path d="M32 0H0V32H32V0Z" fill="white"/>
</mask>
<g mask="url(#mask0_982_12704)">
<path d="M0 16C0 7.16 7.163 0 16 0C24.837 0 32 7.16 32 16C32 24.84 24.837 32 16 32C7.163 32 0 24.84 0 16Z" fill="#0077B5"/>
<path d="M11.3088 24.1504H7.68378V13.25H11.3088V24.1504ZM20.2108 13C22.5968 13 24.3857 14.5504 24.3857 17.9004V24.1504H20.7598V18.3203C20.7598 16.8503 20.2348 15.8496 18.9228 15.8496C17.9208 15.8496 17.3238 16.5297 17.0608 17.1797C16.9658 17.4097 16.9418 17.7396 16.9418 18.0596V24.1504H13.3158C13.3168 24.1004 13.3638 14.27 13.3158 13.25H16.9418V14.79C17.4238 14.05 18.2858 13 20.2108 13ZM9.51978 8C10.7608 8 11.5238 8.80988 11.5478 9.87988C11.5478 10.9299 10.7598 11.7598 9.49579 11.7598H9.47278C8.25478 11.7598 7.46875 10.9299 7.46875 9.87988C7.46875 8.80988 8.27978 8 9.51978 8Z" fill="white"/>
</g>
</svg>
