<svg width="40" height="40" viewBox="0 0 40 40" fill="none" xmlns="http://www.w3.org/2000/svg">
<rect width="40" height="40" rx="5" fill="#E6E6E6"/>
<path fill-rule="evenodd" clip-rule="evenodd" d="M20 7C20 7 22.6442 7 25.0605 8.02201C25.0605 8.02201 27.3936 9.00884 29.1924 10.8076C29.1924 10.8076 30.9912 12.6064 31.978 14.9395C31.978 14.9395 33 17.3558 33 20C33 20 33 22.6442 31.978 25.0605C31.978 25.0605 30.9912 27.3936 29.1924 29.1924C29.1924 29.1924 27.3936 30.9912 25.0605 31.978C25.0605 31.978 22.6442 33 20 33C20 33 17.3558 33 14.9395 31.978C14.9395 31.978 12.6064 30.9912 10.8076 29.1924C10.8076 29.1924 9.00884 27.3936 8.02202 25.0605C8.02202 25.0605 7 22.6442 7 20C7 20 7 17.3558 8.02202 14.9395C8.02202 14.9395 9.00885 12.6064 10.8076 10.8076C10.8076 10.8076 12.6064 9.00884 14.9395 8.02201C14.9395 8.02201 17.3558 7 20 7ZM20 9C20 9 17.7614 9 15.7186 9.86402C15.7186 9.86402 13.7448 10.6989 12.2218 12.2218C12.2218 12.2218 10.6989 13.7448 9.86402 15.7186C9.86402 15.7186 9 17.7614 9 20C9 20 9 22.2386 9.86402 24.2814C9.86402 24.2814 10.6989 26.2552 12.2218 27.7782C12.2218 27.7782 13.7448 29.3011 15.7186 30.136C15.7186 30.136 17.7614 31 20 31C20 31 22.2386 31 24.2814 30.136C24.2814 30.136 26.2552 29.3011 27.7782 27.7782C27.7782 27.7782 29.3011 26.2552 30.136 24.2814C30.136 24.2814 31 22.2386 31 20C31 20 31 17.7614 30.136 15.7186C30.136 15.7186 29.3011 13.7448 27.7782 12.2218C27.7782 12.2218 26.2552 10.6989 24.2814 9.86402C24.2814 9.86402 22.2386 9 20 9Z" fill="#1C1C1C"/>
<path d="M8.6875 17H31.3125C31.8648 17 32.3125 16.5523 32.3125 16C32.3125 15.4477 31.8648 15 31.3125 15H8.6875C8.13522 15 7.6875 15.4477 7.6875 16C7.6875 16.5523 8.13522 17 8.6875 17Z" fill="#1C1C1C"/>
<path d="M8.6875 25H31.3125C31.8648 25 32.3125 24.5523 32.3125 24C32.3125 23.4477 31.8648 23 31.3125 23H8.6875C8.13522 23 7.6875 23.4477 7.6875 24C7.6875 24.5523 8.13522 25 8.6875 25Z" fill="#1C1C1C"/>
<path fill-rule="evenodd" clip-rule="evenodd" d="M20 7.32495C20 7.32495 21.4278 7.32495 22.6489 8.53093C22.6489 8.53093 23.6856 9.55481 24.4548 11.3508C24.4548 11.3508 26 14.9589 26 20C26 20 26 25.041 24.4548 28.6491C24.4548 28.6491 23.6856 30.4451 22.6489 31.469C22.6489 31.469 21.4278 32.6749 20 32.6749C20 32.6749 18.5722 32.6749 17.3511 31.469C17.3511 31.469 16.3144 30.4451 15.5452 28.6491C15.5452 28.6491 14 25.041 14 20C14 20 14 14.9589 15.5452 11.3508C15.5452 11.3508 16.3144 9.55481 17.3511 8.53094C17.3511 8.53094 18.5722 7.32495 20 7.32495ZM20 9.32495C20 9.32495 19.3933 9.32495 18.7565 9.95393C18.7565 9.95393 17.9986 10.7024 17.3837 12.1382C17.3837 12.1382 16 15.3691 16 20C16 20 16 24.6308 17.3837 27.8617C17.3837 27.8617 17.9986 29.2975 18.7565 30.046C18.7565 30.046 19.3933 30.6749 20 30.6749C20 30.6749 20.6067 30.6749 21.2435 30.046C21.2435 30.046 22.0014 29.2975 22.6163 27.8617C22.6163 27.8617 24 24.6308 24 20C24 20 24 15.3691 22.6163 12.1382C22.6163 12.1382 22.0014 10.7024 21.2435 9.95393C21.2435 9.95393 20.6067 9.32495 20 9.32495Z" fill="#1C1C1C"/>
</svg>
