<svg width="40" height="40" viewBox="0 0 40 40" fill="none" xmlns="http://www.w3.org/2000/svg">
<rect width="40" height="40" rx="5" fill="#E6E6E6"/>
<path fill-rule="evenodd" clip-rule="evenodd" d="M20 13C20 13 22.4853 13 24.2426 14.7574C24.2426 14.7574 26 16.5147 26 19C26 19 26 21.4853 24.2426 23.2426C24.2426 23.2426 22.4853 25 20 25C20 25 17.5147 25 15.7574 23.2426C15.7574 23.2426 14 21.4853 14 19C14 19 14 16.5147 15.7574 14.7574C15.7574 14.7574 17.5147 13 20 13ZM20 15C20 15 18.3431 15 17.1716 16.1716C17.1716 16.1716 16 17.3431 16 19C16 19 16 20.6569 17.1716 21.8284C17.1716 21.8284 18.3431 23 20 23C20 23 21.6569 23 22.8284 21.8284C22.8284 21.8284 24 20.6569 24 19C24 19 24 17.3431 22.8284 16.1716C22.8284 16.1716 21.6569 15 20 15Z" fill="#1C1C1C"/>
<path d="M24.185 26.1812C26.1105 27.3631 27.1333 29.3777 27.1333 29.3777C27.2534 29.6142 27.4625 29.7933 27.7146 29.8756C27.8148 29.9084 27.9196 29.925 28.025 29.925L28.0524 29.9247C28.2004 29.9206 28.3457 29.8837 28.4777 29.8167C28.8135 29.6462 29.025 29.3016 29.025 28.925C29.025 28.9107 29.0247 28.8964 29.0241 28.8821C29.018 28.7394 28.9813 28.5997 28.9167 28.4723L28.9162 28.4714C27.6377 25.9538 25.2312 24.4767 25.2312 24.4767C22.8242 22.9993 20 23 20 23C17.1758 23 14.7688 24.4767 14.7688 24.4767C12.3618 25.9541 11.0833 28.4723 11.0833 28.4723C11.0121 28.6126 10.975 28.7677 10.975 28.925L10.975 28.9325C10.9778 29.3063 11.1889 29.6474 11.5223 29.8167C11.6626 29.8879 11.8177 29.925 11.975 29.925L11.9824 29.925C12.3563 29.9222 12.6974 29.7111 12.8667 29.3777C13.8895 27.3631 15.8151 26.1812 15.8151 26.1812C17.7406 24.9993 20 25 20 25C22.2594 25 24.185 26.1812 24.185 26.1812Z" fill="#1C1C1C"/>
<path fill-rule="evenodd" clip-rule="evenodd" d="M29 8C29 8 30.2426 8 31.1213 8.87868C31.1213 8.87868 32 9.75736 32 11C32 11 32 12.2426 31.1213 13.1213C31.1213 13.1213 30.2426 14 29 14C29 14 27.7574 14 26.8787 13.1213C26.8787 13.1213 26 12.2426 26 11C26 11 26 9.75736 26.8787 8.87868C26.8787 8.87868 27.7574 8 29 8ZM29 10C29 10 28.5858 10 28.2929 10.2929C28.2929 10.2929 28 10.5858 28 11C28 11 28 11.4142 28.2929 11.7071C28.2929 11.7071 28.5858 12 29 12C29 12 29.4142 12 29.7071 11.7071C29.7071 11.7071 30 11.4142 30 11C30 11 30 10.5858 29.7071 10.2929C29.7071 10.2929 29.4142 10 29 10Z" fill="#1C1C1C"/>
<path d="M29 10C29.5523 10 30 9.55228 30 9V7.5C30 6.94772 29.5523 6.5 29 6.5C28.4477 6.5 28 6.94772 28 7.5V9C28 9.55228 28.4477 10 29 10Z" fill="#1C1C1C"/>
<path d="M25.4717 10.1141C25.2487 9.98422 25.0846 9.77321 25.0136 9.52516L25.0081 9.50508C24.9861 9.42183 24.975 9.3361 24.975 9.25C24.975 9.09017 25.0133 8.93268 25.0867 8.79071C25.0944 8.77582 25.1025 8.76113 25.1109 8.74665C25.2408 8.52371 25.4518 8.35959 25.6998 8.2886L25.7199 8.28308C25.8032 8.26112 25.8889 8.25 25.975 8.25C26.1348 8.25 26.2923 8.28831 26.4343 8.36172C26.4492 8.36941 26.4639 8.37748 26.4784 8.38592L27.7659 9.13592C28.0575 9.30581 28.2438 9.61138 28.2612 9.94847C28.2621 9.96563 28.2625 9.98281 28.2625 10C28.2625 10.1768 28.2156 10.3505 28.1266 10.5033C27.9931 10.7325 27.774 10.8993 27.5176 10.9669C27.4389 10.9877 27.358 10.9987 27.2766 10.9999L27.2625 11C27.0857 11 26.912 10.9531 26.7592 10.8641L25.4717 10.1141Z" fill="#1C1C1C"/>
<path d="M27.7659 12.8641C27.7807 12.8554 27.7953 12.8464 27.8097 12.837C28.0168 12.7016 28.1663 12.4943 28.2294 12.2551L28.2303 12.2518C28.2517 12.1696 28.2625 12.085 28.2625 12C28.2625 11.8232 28.2156 11.6495 28.1266 11.4967C28.1179 11.4818 28.1089 11.4672 28.0995 11.4528C27.9641 11.2457 27.7568 11.0962 27.5176 11.0331L27.5143 11.0322C27.4321 11.0108 27.3475 11 27.2625 11C27.0857 11 26.912 11.0469 26.7592 11.1359L25.4718 11.8859C25.2425 12.0194 25.0757 12.2385 25.0081 12.4949C24.9861 12.5782 24.975 12.6639 24.975 12.75C24.975 12.7618 24.9752 12.7736 24.9756 12.7854C24.9815 12.9501 25.0279 13.1109 25.1109 13.2533C25.2444 13.4825 25.4635 13.6493 25.7199 13.7169C25.8032 13.7389 25.8889 13.75 25.975 13.75C25.9868 13.75 25.9986 13.7498 26.0104 13.7494C26.1751 13.7435 26.3359 13.6971 26.4784 13.6141L27.7659 12.8641Z" fill="#1C1C1C"/>
<path d="M28 13V14.5C28 15.0523 28.4477 15.5 29 15.5C29.5523 15.5 30 15.0523 30 14.5V13C30 12.4477 29.5523 12 29 12C28.4477 12 28 12.4477 28 13Z" fill="#1C1C1C"/>
<path d="M30.2341 12.8641C30.0112 12.7342 29.8471 12.5232 29.7761 12.2752L29.7706 12.2551C29.7486 12.1718 29.7375 12.0861 29.7375 12C29.7375 11.8402 29.7758 11.6827 29.8492 11.5407C29.8569 11.5258 29.865 11.5111 29.8734 11.4967C30.0033 11.2737 30.2143 11.1096 30.4623 11.0386L30.4824 11.0331C30.5657 11.0111 30.6514 11 30.7375 11C30.8973 11 31.0548 11.0383 31.1968 11.1117C31.2117 11.1194 31.2264 11.1275 31.2408 11.1359L32.5283 11.8859C32.82 12.0558 33.0063 12.3614 33.0237 12.6985C33.0245 12.7156 33.025 12.7328 33.025 12.75C33.025 12.9268 32.9781 13.1005 32.8891 13.2533C32.7556 13.4825 32.5365 13.6493 32.2801 13.7169C32.2014 13.7377 32.1205 13.7487 32.0391 13.7499L32.025 13.75C31.8481 13.75 31.6745 13.7031 31.5216 13.6141L30.2341 12.8641Z" fill="#1C1C1C"/>
<path d="M32.5283 10.1141C32.5432 10.1054 32.5578 10.0964 32.5722 10.087C32.7793 9.95162 32.9288 9.74429 32.9919 9.50508L32.9928 9.50183C33.0142 9.4196 33.025 9.33497 33.025 9.25C33.025 9.07315 32.9781 8.89946 32.8891 8.74665C32.8804 8.7318 32.8714 8.71718 32.862 8.70279C32.7266 8.49572 32.5193 8.34618 32.2801 8.28308L32.2768 8.28223C32.1946 8.26083 32.11 8.25 32.025 8.25C31.8481 8.25 31.6745 8.2969 31.5216 8.38592L30.2342 9.13586C30.005 9.26941 29.8382 9.48848 29.7706 9.74492C29.7486 9.82817 29.7375 9.9139 29.7375 10C29.7375 10.0118 29.7377 10.0236 29.7381 10.0354C29.7439 10.2001 29.7904 10.3609 29.8734 10.5033C30.0069 10.7325 30.226 10.8993 30.4824 10.9669C30.5657 10.9889 30.6514 11 30.7375 11C30.7493 11 30.7611 10.9998 30.7729 10.9994C30.9376 10.9935 31.0984 10.9471 31.2408 10.8641L32.5283 10.1141Z" fill="#1C1C1C"/>
<path d="M20.0063 8.99995C20.5126 8.99676 21.0165 9.04536 21.0165 9.04536C21.0484 9.04843 21.0805 9.04997 21.1125 9.04997C21.1415 9.04997 21.1704 9.04872 21.1992 9.0462C21.6795 9.00439 22.0616 8.62584 22.1079 8.14596C22.111 8.11406 22.1125 8.08203 22.1125 8.04997C22.1124 7.81805 22.0317 7.59299 21.8842 7.41401C21.7155 7.20933 21.4725 7.08005 21.2085 7.05459C20.6023 6.99615 19.9937 6.99999 19.9937 6.99999C16.0565 6.99997 12.7776 9.19087 12.7776 9.19087C9.49868 11.3818 7.98957 15.0251 7.98957 15.0251C6.48046 18.6684 7.2498 22.5361 7.2498 22.5361C8.01914 26.4039 10.8076 29.1924 10.8076 29.1924C13.5961 31.9808 17.4638 32.7502 17.4638 32.7502C21.3316 33.5195 24.9749 32.0104 24.9749 32.0104C28.6182 30.5013 30.8091 27.2224 30.8091 27.2224C33 23.9435 33 20 33 20C33.0039 19.2174 32.9045 18.4363 32.9045 18.4363C32.841 17.9368 32.416 17.5625 31.9125 17.5625L31.9105 17.5625C31.869 17.5626 31.8275 17.5652 31.7863 17.5705C31.5232 17.6039 31.2842 17.7405 31.1218 17.9502C30.9861 18.1255 30.9125 18.3408 30.9125 18.5625L30.9125 18.5681C30.9127 18.6084 30.9154 18.6487 30.9205 18.6887C31.0033 19.3392 31 20 31 20C31 23.3368 29.1462 26.1112 29.1462 26.1112C27.2923 28.8857 24.2095 30.1626 24.2095 30.1626C21.1267 31.4396 17.854 30.7886 17.854 30.7886C14.5813 30.1376 12.2218 27.7781 12.2218 27.7781C9.86235 25.4187 9.21137 22.146 9.21137 22.146C8.56039 18.8733 9.83733 15.7905 9.83733 15.7905C11.1143 12.7076 13.8887 10.8538 13.8887 10.8538C16.6632 8.99997 20.0063 8.99995 20.0063 8.99995Z" fill="#1C1C1C"/>
</svg>
