<svg width="22" height="24" viewBox="0 0 22 24" fill="none" xmlns="http://www.w3.org/2000/svg">
<path d="M21.8442 22.5L14.0192 10.2002L21.7402 1.7002C21.9152 1.5002 22.0052 1.2 21.9902 1C21.9762 0.7 21.8592 0.399805 21.6642 0.299805C21.4702 0.0998047 21.2132 2.34741e-08 20.9502 2.34741e-08C20.6872 2.34741e-08 20.4392 0.0998047 20.2602 0.299805L12.9052 8.40039L7.8442 0.5C7.7542 0.3 7.62923 0.199609 7.48123 0.0996094C7.33423 -0.000390604 7.16821 2.34741e-08 7.00021 2.34741e-08H1.00021C0.821208 2.34741e-08 0.645198 -0.000390604 0.490198 0.0996094C0.336198 0.199609 0.209194 0.4 0.123194 0.5C0.0371939 0.7 -0.00579191 0.9 0.00020809 1C0.00620809 1.2 0.060214 1.4 0.156214 1.5L7.98123 13.7998L0.260218 22.2998C0.170218 22.3998 0.100224 22.5002 0.0542242 22.7002C0.0082242 22.8002 -0.012811 22.8996 -0.00681095 23.0996C-0.00181095 23.1996 0.0302066 23.3004 0.0862066 23.4004C0.142207 23.6004 0.221178 23.6998 0.319178 23.7998C0.417178 23.7998 0.532191 23.9 0.657191 24C0.781191 24 0.914229 24 1.04623 24C1.17823 24 1.30723 24.0004 1.42623 23.9004C1.54623 23.9004 1.6522 23.8002 1.7402 23.7002L9.09518 15.5996L14.1562 23.5C14.2472 23.7 14.3722 23.8004 14.5202 23.9004C14.6672 24.0004 14.8322 24 15.0002 24H21.0002C21.1792 24 21.3552 24.0004 21.5092 23.9004C21.6632 23.8004 21.7902 23.6 21.8762 23.5C21.9622 23.3 22.0052 23.1 21.9992 23C21.9932 22.8 21.9402 22.6 21.8442 22.5ZM15.5492 22L2.82119 2H6.44619L19.1792 22H15.5492Z" fill="#343330"/>
</svg>
