<svg width="24" height="24" viewBox="0 0 24 24" fill="none" xmlns="http://www.w3.org/2000/svg">
<path d="M6.53033 18.5303L18.5303 6.53033C18.671 6.38968 18.75 6.19891 18.75 6C18.75 5.80109 18.671 5.61032 18.5303 5.46967C18.3897 5.32902 18.1989 5.25 18 5.25C17.9871 5.25 17.9741 5.25034 17.9612 5.251C17.7759 5.2606 17.6008 5.33851 17.4697 5.46967L5.46995 17.4694C5.3293 17.61 5.25 17.8011 5.25 18C5.25 18.1989 5.32902 18.3897 5.46967 18.5303C5.61032 18.671 5.80109 18.75 6 18.75C6.19891 18.75 6.38968 18.671 6.53033 18.5303Z" fill="#1C1C1C"/>
<path d="M17.25 6.75V15.75C17.25 16.1642 17.5858 16.5 18 16.5C18.4142 16.5 18.75 16.1642 18.75 15.75V6C18.75 5.58579 18.4142 5.25 18 5.25H8.25C7.83579 5.25 7.5 5.58579 7.5 6C7.5 6.41421 7.83579 6.75 8.25 6.75H17.25Z" fill="#1C1C1C"/>
</svg>
