<svg width="32" height="32" viewBox="0 0 32 32" fill="none" xmlns="http://www.w3.org/2000/svg">
<g clip-path="url(#clip0_227_647)">
<path d="M16 32C24.8366 32 32 24.8366 32 16C32 7.16344 24.8366 0 16 0C7.16344 0 0 7.16344 0 16C0 24.8366 7.16344 32 16 32Z" fill="#2D8CFF"/>
<path d="M17.084 10.4349C18.7899 10.435 20.1737 11.8052 20.1738 13.4954V21.0081C20.1738 21.3154 19.9224 21.5657 19.6123 21.5657H8.65527C6.9494 21.5655 5.56543 20.1945 5.56543 18.5042V10.9915C5.56548 10.6842 5.81688 10.4349 6.12695 10.4349H17.084ZM25.3916 10.6234C25.7857 10.3011 26.0869 10.3762 26.0869 10.971V21.0423C26.0868 21.7092 25.7115 21.6334 25.3916 21.389L20.8701 18.0902V13.9232L25.3916 10.6234Z" fill="white"/>
</g>
<defs>
<clipPath id="clip0_227_647">
<rect width="32" height="32" fill="white"/>
</clipPath>
</defs>
</svg>
