<svg width="40" height="40" viewBox="0 0 40 40" fill="none" xmlns="http://www.w3.org/2000/svg">
<circle cx="20" cy="20" r="20" fill="#F4D150" fill-opacity="0.21"/>
<path d="M27.4072 14.8148V24.4444C27.4072 24.8535 27.7388 25.1851 28.1479 25.1851C28.557 25.1851 28.8887 24.8535 28.8887 24.4444V14.8148C28.8887 13.8943 28.2378 13.2434 28.2378 13.2434C27.5869 12.5925 26.6664 12.5925 26.6664 12.5925H13.3331C12.4126 12.5925 11.7617 13.2434 11.7617 13.2434C11.1109 13.8943 11.1109 14.8148 11.1109 14.8148V24.4444C11.1109 24.8535 11.4425 25.1851 11.8516 25.1851C12.2607 25.1851 12.5924 24.8535 12.5924 24.4444V14.8148C12.5924 14.5079 12.8093 14.291 12.8093 14.291C13.0263 14.074 13.3331 14.074 13.3331 14.074H26.6664C26.9733 14.074 27.1902 14.291 27.1902 14.291C27.4072 14.5079 27.4072 14.8148 27.4072 14.8148Z" fill="#DFB61D"/>
<path fill-rule="evenodd" clip-rule="evenodd" d="M9.62939 25.9259V24.4444C9.62939 24.0353 9.96104 23.7036 10.3701 23.7036H29.6294C30.0385 23.7036 30.3701 24.0353 30.3701 24.4444V25.9259C30.3701 25.9259 30.3701 26.8463 29.7193 27.4972C29.7193 27.4972 29.0684 28.1481 28.1479 28.1481H11.8516C11.8516 28.1481 10.9311 28.1481 10.2803 27.4972C10.2803 27.4972 9.62939 26.8463 9.62939 25.9259ZM11.1109 25.9259C11.1109 25.9259 11.1109 26.2327 11.3278 26.4496C11.3278 26.4496 11.5448 26.6666 11.8516 26.6666H28.1479C28.1479 26.6666 28.4547 26.6666 28.6717 26.4496C28.6717 26.4496 28.8887 26.2327 28.8887 25.9259V25.1851H11.1109V25.9259Z" fill="#DFB61D"/>
<path d="M21.4812 15.5555H18.5183C18.1092 15.5555 17.7775 15.8871 17.7775 16.2962C17.7775 16.7053 18.1092 17.037 18.5183 17.037H21.4812C21.8903 17.037 22.222 16.7053 22.222 16.2962C22.222 15.8871 21.8903 15.5555 21.4812 15.5555Z" fill="#DFB61D"/>
</svg>
